<svg width="30" height="30" viewBox="0 0 30 30" fill="currentColor" xmlns="http://www.w3.org/2000/svg">
<g clip-path="url(#clip0_36_326)">
<path d="M20.2403 15.6076C20.4709 15.8092 20.4709 15.8092 20.7423 15.9375C20.8712 15.8862 20.8712 15.8862 20.9986 15.791C21.8068 15.2743 22.77 14.9779 23.7305 14.9414C23.8101 14.9379 23.8101 14.9379 23.8912 14.9343C25.4031 14.9002 26.7845 15.3975 27.9493 16.3477C27.9846 16.3747 28.0198 16.4017 28.0562 16.4296C29.1221 17.2633 29.8237 18.7156 30.0001 20.0391C30.0207 20.4393 30.0184 20.8408 30.0206 21.2415C30.0215 21.3723 30.0231 21.5031 30.0254 21.6339C30.0286 21.8236 30.0299 22.0132 30.0307 22.2029C30.0321 22.2609 30.0334 22.3189 30.0348 22.3787C30.0334 22.8125 29.9239 23.097 29.6205 23.4095C29.2622 23.7279 28.9488 23.7474 28.4914 23.7438C28.4056 23.7438 28.4056 23.7438 28.3181 23.7438C28.1295 23.7437 27.9409 23.7428 27.7522 23.7419C27.6213 23.7417 27.4903 23.7415 27.3594 23.7414C27.015 23.741 26.6706 23.7398 26.3263 23.7385C25.9747 23.7373 25.6232 23.7368 25.2717 23.7362C24.5822 23.7349 23.8927 23.7329 23.2032 23.7305C23.2035 23.8048 23.2037 23.8792 23.204 23.9558C23.2061 24.5203 23.0398 24.8776 22.6498 25.2834C22.2625 25.6379 21.8362 25.6902 21.3367 25.6868C21.2803 25.6871 21.2238 25.6874 21.1657 25.6877C20.9774 25.6886 20.7891 25.6882 20.6008 25.6877C20.4655 25.6881 20.3301 25.6885 20.1948 25.689C19.8277 25.69 19.4607 25.6899 19.0936 25.6896C18.7869 25.6894 18.4803 25.6898 18.1736 25.6901C17.4087 25.691 16.6438 25.6908 15.8789 25.6901C15.2155 25.6895 14.5521 25.6903 13.8887 25.6917C13.2065 25.6931 12.5244 25.6936 11.8423 25.6933C11.4597 25.6931 11.0771 25.6932 10.6945 25.6942C10.3347 25.6951 9.97488 25.6949 9.61503 25.6938C9.48319 25.6936 9.35134 25.6938 9.2195 25.6944C9.03907 25.6951 8.8587 25.6945 8.67828 25.6934C8.6265 25.694 8.57472 25.6946 8.52138 25.6951C8.04838 25.6896 7.62646 25.5626 7.27301 25.2393C6.9472 24.8789 6.85259 24.5542 6.79694 24.082C6.7241 24.0828 6.65126 24.0836 6.57621 24.0844C5.88831 24.0915 5.20041 24.0968 4.51248 24.1002C4.15884 24.1021 3.80523 24.1046 3.4516 24.1086C3.11006 24.1124 2.76854 24.1145 2.42697 24.1154C2.29694 24.116 2.16692 24.1173 2.03691 24.1192C0.806933 24.1365 0.806933 24.1365 0.388347 23.8244C0.127512 23.5673 -0.00571301 23.3116 -0.0103061 22.9408C-0.0110581 22.8877 -0.0118111 22.8346 -0.0125859 22.78C-0.0130188 22.7225 -0.0134507 22.665 -0.0138966 22.6057C-0.0146061 22.516 -0.0146052 22.516 -0.0153289 22.4245C-0.0161403 22.2973 -0.0167693 22.1701 -0.0172297 22.043C-0.0178992 21.9145 -0.0190886 21.7861 -0.0208346 21.6577C-0.046111 19.798 0.46265 18.3348 1.76154 16.9629C3.02083 15.7315 4.61594 15.3231 6.33071 15.3392C7.33552 15.3609 8.2629 15.695 9.14069 16.1719C9.17615 16.1323 9.17615 16.1323 9.21233 16.092C12.0726 13.0616 17.1058 13.0366 20.2403 15.6076ZM9.54352 17.2412C8.41075 18.5667 7.83561 20.2035 7.83194 21.9415C7.83155 22.0074 7.83116 22.0732 7.83076 22.1411C7.83017 22.2788 7.82989 22.4164 7.82991 22.5541C7.82965 22.7648 7.82751 22.9755 7.82531 23.1862C7.82496 23.3206 7.82473 23.455 7.82462 23.5895C7.82378 23.6522 7.82294 23.715 7.82207 23.7796C7.82365 24.1251 7.82365 24.1251 7.95585 24.4387C8.14849 24.6046 8.30163 24.6825 8.55687 24.683C8.62705 24.6836 8.62705 24.6836 8.69865 24.6842C8.74971 24.684 8.80077 24.6838 8.85337 24.6836C8.90788 24.6839 8.96238 24.6842 9.01854 24.6844C9.20161 24.6852 9.38468 24.6851 9.56775 24.685C9.69884 24.6853 9.82992 24.6857 9.961 24.6862C10.3174 24.6872 10.6738 24.6875 11.0302 24.6876C11.3276 24.6877 11.6249 24.6881 11.9222 24.6885C12.5836 24.6894 13.2449 24.6898 13.9062 24.6897C13.9658 24.6897 13.9658 24.6897 14.0265 24.6897C14.0861 24.6897 14.0861 24.6897 14.1469 24.6897C14.7908 24.6896 15.4346 24.6907 16.0785 24.6924C16.7397 24.6941 17.4009 24.6949 18.0621 24.6948C18.4333 24.6948 18.8045 24.6951 19.1756 24.6963C19.5247 24.6975 19.8738 24.6975 20.2228 24.6966C20.351 24.6965 20.4791 24.6968 20.6073 24.6975C20.7822 24.6984 20.957 24.6978 21.1319 24.6969C21.1827 24.6975 21.2335 24.6981 21.2858 24.6988C21.6008 24.6952 21.7825 24.6448 22.0313 24.4336C22.1573 24.2446 22.1634 24.1929 22.1646 23.9749C22.1652 23.9173 22.1657 23.8597 22.1663 23.8004C22.1662 23.738 22.1662 23.6755 22.1661 23.6112C22.1665 23.5139 22.1665 23.5139 22.1669 23.4146C22.1672 23.2767 22.1673 23.1387 22.167 23.0007C22.1668 22.7932 22.1682 22.5857 22.1697 22.3781C22.1724 21.4407 22.1342 20.5182 21.8189 19.6252C21.8042 19.5825 21.7894 19.5398 21.7742 19.4958C21.0948 17.6132 19.6471 16.1822 17.855 15.3399C14.9379 14.0397 11.6644 14.9804 9.54352 17.2412ZM21.4454 16.6992C21.4454 16.942 21.5737 17.076 21.709 17.2668C22.7587 18.7953 23.0757 20.4099 23.1753 22.2281C23.1794 22.3013 23.1794 22.3013 23.1835 22.3759C23.1901 22.4954 23.1966 22.6149 23.2032 22.7344C23.9249 22.7384 24.6466 22.7416 25.3684 22.7435C25.7035 22.7444 26.0386 22.7456 26.3737 22.7476C26.697 22.7495 27.0203 22.7506 27.3436 22.7511C27.4671 22.7514 27.5905 22.752 27.7139 22.753C27.8866 22.7542 28.0593 22.7544 28.232 22.7543C28.2832 22.755 28.3344 22.7556 28.3872 22.7562C28.5936 22.7552 28.7329 22.7532 28.9185 22.6581C29.0597 22.4937 29.0361 22.3043 29.033 22.0981C29.0331 22.0523 29.0332 22.0065 29.0333 21.9593C29.0332 21.862 29.0325 21.7647 29.0313 21.6674C29.0296 21.5215 29.0301 21.3758 29.0309 21.2299C29.0289 19.7096 28.5627 18.4275 27.4805 17.3438C27.4377 17.3002 27.3949 17.2567 27.3508 17.2119C26.3741 16.2807 25.0674 15.9488 23.7511 15.9782C22.9035 16.0148 22.1913 16.3146 21.4454 16.6992ZM2.57819 17.6367C2.51871 17.6878 2.51871 17.6878 2.45803 17.7399C1.55793 18.5715 1.03745 19.7989 0.979408 21.0134C0.972141 21.2507 0.971398 21.4877 0.973242 21.7251C0.974201 21.8724 0.973237 22.0197 0.972126 22.167C0.972242 22.2612 0.972467 22.3554 0.972813 22.4496C0.972457 22.4934 0.972101 22.5372 0.971735 22.5822C0.971298 22.8109 0.971298 22.8109 1.0708 23.0095C1.19368 23.1024 1.25396 23.1077 1.40663 23.1071C1.4542 23.1073 1.50177 23.1076 1.55078 23.1078C1.60275 23.1072 1.65471 23.1065 1.70825 23.1059C1.76314 23.1059 1.81803 23.1059 1.87459 23.106C2.05626 23.1059 2.2379 23.1045 2.41957 23.1031C2.54544 23.1028 2.6713 23.1025 2.79716 23.1024C3.12863 23.1017 3.46008 23.1 3.79155 23.098C4.1297 23.0962 4.46785 23.0954 4.80601 23.0945C5.46966 23.0926 6.1333 23.0896 6.79694 23.0859C6.79993 23.022 6.80293 22.9581 6.80601 22.8922C6.81736 22.6519 6.8292 22.4117 6.84117 22.1715C6.84626 22.0681 6.85122 21.9646 6.85605 21.8612C6.89074 21.1201 6.94601 20.4048 7.1485 19.6875C7.16424 19.6296 7.16424 19.6296 7.18029 19.5706C7.43743 18.6487 7.90598 17.8383 8.43756 17.0508C6.76221 15.6915 4.05388 16.3439 2.57819 17.6367Z" fill="currentColor"/>
<path d="M17.5782 5.21484C18.5479 5.9886 19.1769 7.02616 19.336 8.26172C19.4559 9.54078 19.0805 10.6966 18.2778 11.6927C17.5285 12.5716 16.4942 13.1054 15.3516 13.2422C14.0328 13.3248 12.7863 12.9896 11.7664 12.1179C10.9289 11.3221 10.3781 10.2436 10.3125 9.08203C10.3094 9.03482 10.3063 8.98761 10.3031 8.93898C10.2615 7.72335 10.722 6.64236 11.5027 5.72754C13.0911 4.03349 15.7233 3.86113 17.5782 5.21484ZM12.3633 6.32812C11.6849 7.04789 11.3362 7.90319 11.3466 8.8863C11.3793 9.90438 11.8214 10.6762 12.5391 11.3672C13.2023 11.9601 14.0577 12.245 14.9414 12.2461C15.738 12.1925 16.4279 11.9216 17.0508 11.4258C17.1088 11.3805 17.1668 11.3351 17.2266 11.2884C17.7851 10.8185 18.1274 10.0757 18.2813 9.375C18.3671 8.36517 18.2035 7.46109 17.5761 6.641C16.9934 5.95971 16.2082 5.48736 15.3131 5.36018C14.213 5.27633 13.1786 5.54907 12.3633 6.32812Z" fill="currentColor"/>
<path d="M7.96868 8.20314C8.67258 8.74188 9.25932 9.49613 9.41911 10.389C9.51556 11.4453 9.38579 12.3632 8.72216 13.2303C8.1301 13.9134 7.34751 14.459 6.42309 14.5441C5.30815 14.5962 4.40428 14.3973 3.52654 13.6634C2.79239 12.973 2.44709 12.071 2.40456 11.0781C2.38681 10.2682 2.68315 9.54781 3.16399 8.90627C3.18832 8.8716 3.21264 8.83693 3.23769 8.80121C4.34203 7.35632 6.53514 7.27386 7.96868 8.20314ZM3.98293 9.52585C3.53402 10.0768 3.38935 10.7286 3.45696 11.4258C3.55489 11.9071 3.71083 12.2929 4.0429 12.6563C4.08762 12.707 4.13233 12.7578 4.1784 12.8101C4.70587 13.2762 5.34211 13.5908 6.06301 13.5535C6.82946 13.4586 7.42973 13.1622 7.92657 12.5615C8.33437 11.9961 8.488 11.4152 8.40997 10.7236C8.29236 10.056 7.96549 9.52709 7.43791 9.10219C6.28614 8.305 4.93396 8.5261 3.98293 9.52585Z" fill="currentColor"/>
<path d="M26.1913 8.02736C26.8935 8.55505 27.3275 9.28908 27.539 10.1367C27.6769 11.208 27.4933 12.1307 26.8359 13.0078C26.8116 13.0425 26.7872 13.0772 26.7622 13.1129C26.2712 13.7553 25.4477 14.1526 24.6679 14.2969C23.6413 14.3878 22.7011 14.2111 21.8632 13.5855C21.2133 13.0206 20.647 12.2506 20.5663 11.3672C20.5015 10.2883 20.6778 9.37596 21.4086 8.53273C22.6969 7.1878 24.6461 6.95405 26.1913 8.02736ZM22.0623 9.36563C21.663 9.92893 21.5126 10.5057 21.5899 11.1905C21.7075 11.8581 22.0344 12.387 22.562 12.8119C23.1458 13.216 23.7833 13.3868 24.4853 13.2736C25.1675 13.1261 25.6916 12.7875 26.1328 12.2461C26.5161 11.643 26.6458 10.9942 26.5026 10.2903C26.3894 9.88311 26.2421 9.56985 25.957 9.25783C25.8899 9.18169 25.8899 9.18169 25.8215 9.10402C25.2782 8.62393 24.6349 8.32335 23.8954 8.35672C23.1497 8.45705 22.5392 8.78193 22.0623 9.36563Z" fill="currentColor"/>
</g>
<defs>
<clipPath id="clip0_36_326">
<rect width="30" height="30" fill="white"/>
</clipPath>
</defs>
</svg>
