<svg width="21" height="21" viewBox="0 0 21 21" fill="none" xmlns="http://www.w3.org/2000/svg">
<path d="M16.3333 2.16667H15.5V1.33333C15.5 1.11232 15.4122 0.900358 15.2559 0.744078C15.0996 0.587797 14.8877 0.5 14.6667 0.5C14.4457 0.5 14.2337 0.587797 14.0774 0.744078C13.9211 0.900358 13.8333 1.11232 13.8333 1.33333V2.16667H7.16667V1.33333C7.16667 1.11232 7.07887 0.900358 6.92259 0.744078C6.76631 0.587797 6.55435 0.5 6.33333 0.5C6.11232 0.5 5.90036 0.587797 5.74408 0.744078C5.5878 0.900358 5.5 1.11232 5.5 1.33333V2.16667H4.66667C3.562 2.16799 2.50296 2.6074 1.72185 3.38852C0.940735 4.16963 0.501323 5.22867 0.5 6.33333V16.3333C0.501323 17.438 0.940735 18.497 1.72185 19.2782C2.50296 20.0593 3.562 20.4987 4.66667 20.5H16.3333C17.438 20.4987 18.497 20.0593 19.2781 19.2782C20.0593 18.497 20.4987 17.438 20.5 16.3333V6.33333C20.4987 5.22867 20.0593 4.16963 19.2781 3.38852C18.497 2.6074 17.438 2.16799 16.3333 2.16667ZM2.16667 6.33333C2.16667 5.67029 2.43006 5.03441 2.8989 4.56557C3.36774 4.09673 4.00363 3.83333 4.66667 3.83333H16.3333C16.9964 3.83333 17.6323 4.09673 18.1011 4.56557C18.5699 5.03441 18.8333 5.67029 18.8333 6.33333V7.16667H2.16667V6.33333ZM16.3333 18.8333H4.66667C4.00363 18.8333 3.36774 18.5699 2.8989 18.1011C2.43006 17.6323 2.16667 16.9964 2.16667 16.3333V8.83333H18.8333V16.3333C18.8333 16.9964 18.5699 17.6323 18.1011 18.1011C17.6323 18.5699 16.9964 18.8333 16.3333 18.8333Z" fill="#FEC178"/>
<path d="M10.5 14.25C11.1904 14.25 11.75 13.6904 11.75 13C11.75 12.3096 11.1904 11.75 10.5 11.75C9.80964 11.75 9.25 12.3096 9.25 13C9.25 13.6904 9.80964 14.25 10.5 14.25Z" fill="#FEC178"/>
<path d="M6.33321 14.25C7.02356 14.25 7.58321 13.6904 7.58321 13C7.58321 12.3096 7.02356 11.75 6.33321 11.75C5.64285 11.75 5.08321 12.3096 5.08321 13C5.08321 13.6904 5.64285 14.25 6.33321 14.25Z" fill="#FEC178"/>
<path d="M14.6668 14.25C15.3571 14.25 15.9168 13.6904 15.9168 13C15.9168 12.3096 15.3571 11.75 14.6668 11.75C13.9764 11.75 13.4168 12.3096 13.4168 13C13.4168 13.6904 13.9764 14.25 14.6668 14.25Z" fill="#FEC178"/>
</svg>
