<svg width="10" height="10" viewBox="0 0 10 10" fill="none" xmlns="http://www.w3.org/2000/svg">
<path d="M9.7364 0.263604C10.0879 0.615075 10.0879 1.18492 9.7364 1.53639L6.27299 4.99999L9.7364 8.4636C10.0586 8.78579 10.0854 9.29147 9.81694 9.64423L9.7364 9.7364C9.38492 10.0879 8.81508 10.0879 8.4636 9.7364L4.99999 6.27299L1.53639 9.7364C1.18492 10.0879 0.615075 10.0879 0.263604 9.7364C-0.0878678 9.38492 -0.0878678 8.81508 0.263604 8.4636L3.727 4.99999L0.263604 1.53639C-0.0585785 1.21421 -0.0854271 0.708533 0.183058 0.355768L0.263604 0.263604C0.615075 -0.0878679 1.18492 -0.0878679 1.53639 0.263604L4.99999 3.727L8.4636 0.263604C8.81508 -0.0878679 9.38492 -0.0878679 9.7364 0.263604Z" fill="#FEC178"/>
</svg>
