<svg width="30" height="30" viewBox="0 0 30 30" fill="currentColor" xmlns="http://www.w3.org/2000/svg">
<path d="M13.7537 15.574C13.8242 15.5738 13.8242 15.5738 13.8962 15.5735C14.1458 15.5726 14.3953 15.5721 14.6449 15.5719C14.8485 15.5716 15.0521 15.5708 15.2556 15.5694C18.8505 15.5463 21.8715 16.4867 24.4921 19.043C26.42 20.9896 27.477 23.6843 27.6415 26.3928C27.6465 26.4667 27.6465 26.4667 27.6516 26.5421C27.6669 26.8435 27.647 27.0801 27.539 27.3633C27.2482 27.6541 27.0067 27.6636 26.6086 27.6638C26.5679 27.6639 26.5272 27.664 26.4852 27.6641C26.3481 27.6644 26.2109 27.6642 26.0738 27.6641C25.9748 27.6642 25.8757 27.6643 25.7767 27.6645C25.504 27.6648 25.2313 27.6648 24.9586 27.6648C24.6647 27.6647 24.3708 27.6651 24.0769 27.6653C23.5009 27.6658 22.925 27.666 22.349 27.666C21.8809 27.6661 21.4129 27.6662 20.9448 27.6664C19.6186 27.6669 18.2924 27.6671 16.9661 27.6671C16.8946 27.6671 16.8231 27.6671 16.7494 27.6671C16.6777 27.6671 16.6061 27.6671 16.5323 27.6671C15.3713 27.6671 14.2102 27.6676 13.0491 27.6685C11.8577 27.6693 10.6663 27.6697 9.47486 27.6696C8.80566 27.6696 8.13646 27.6698 7.46726 27.6704C6.89755 27.671 6.32785 27.6711 5.75814 27.6707C5.46735 27.6705 5.17657 27.6705 4.88579 27.671C4.61971 27.6715 4.35363 27.6714 4.08755 27.6709C3.99118 27.6708 3.89482 27.6709 3.79845 27.6712C3.66763 27.6716 3.53682 27.6713 3.406 27.6708C3.33328 27.6708 3.26057 27.6708 3.18565 27.6709C2.92187 27.6513 2.71557 27.5966 2.50115 27.4402C2.13047 26.9322 2.38484 25.8507 2.47243 25.2633C2.89586 22.6409 4.18308 20.0434 6.26946 18.3398C6.29942 18.3147 6.32938 18.2896 6.36024 18.2637C7.18127 17.5753 8.05345 17.0351 9.02337 16.582C9.08938 16.5508 9.1554 16.5195 9.22341 16.4873C10.6535 15.8409 12.1939 15.5778 13.7537 15.574ZM7.26556 19.1601C7.21767 19.2016 7.16978 19.2431 7.12045 19.2858C6.97138 19.4176 6.82512 19.5518 6.67962 19.6875C6.63332 19.7299 6.58702 19.7724 6.53932 19.8161C5.1111 21.1774 4.20416 23.0429 3.78655 24.9536C3.77287 25.0151 3.77287 25.0151 3.75892 25.0777C3.67196 25.5105 3.6628 25.9164 3.63274 26.3672C11.1351 26.3672 18.6374 26.3672 26.3671 26.3672C26.3174 25.5934 26.3174 25.5934 26.1877 24.8401C26.1749 24.7832 26.1622 24.7263 26.149 24.6676C25.8192 23.2666 25.2144 21.9298 24.3163 20.8008C24.2788 20.7533 24.2788 20.7533 24.2404 20.7048C22.7767 18.8745 20.8015 17.5963 18.5119 17.0618C18.4394 17.0446 18.4394 17.0446 18.3655 17.0272C17.3395 16.8031 16.3075 16.796 15.2619 16.7979C15.1025 16.7982 14.9432 16.7978 14.7838 16.7967C12.0407 16.7785 9.39166 17.3134 7.26556 19.1601Z" fill="currentColor"/>
<path d="M16.8751 2.63671C16.9157 2.65054 16.9564 2.66437 16.9984 2.67862C18.5138 3.20777 19.7577 4.31386 20.466 5.75545C21.166 7.25772 21.2339 8.97237 20.6763 10.5286C20.2943 11.5341 19.6673 12.4646 18.8086 13.125C18.7462 13.174 18.7462 13.174 18.6825 13.2241C17.3314 14.229 15.691 14.5863 14.0305 14.3868C12.8976 14.2153 11.8798 13.6881 11.0157 12.9492C10.9812 12.9232 10.9468 12.8972 10.9113 12.8705C9.89823 12.0868 9.21751 10.6809 9.02349 9.43358C9.01141 9.35745 8.99932 9.28131 8.98687 9.20287C8.82779 7.50897 9.23452 5.88636 10.3128 4.55377C11.2239 3.45602 12.5903 2.57901 14.0344 2.41401C14.9874 2.33748 15.9643 2.31745 16.8751 2.63671ZM11.4462 5.16814C11.0406 5.6514 10.7082 6.20524 10.4883 6.79686C10.4654 6.8582 10.4424 6.91953 10.4188 6.98272C10.0339 8.18543 10.1894 9.50501 10.7613 10.617C11.406 11.8004 12.4185 12.6179 13.711 13.0078C15.046 13.3508 16.3331 13.156 17.5303 12.4711C18.5969 11.7743 19.3854 10.7094 19.6857 9.46247C19.9592 8.09885 19.6606 6.82997 18.9249 5.67374C18.2672 4.73502 17.29 4.03555 16.1719 3.74999C16.1263 3.73806 16.0807 3.72612 16.0337 3.71383C14.3513 3.34167 12.6244 3.93439 11.4462 5.16814Z" fill="currentColor"/>
</svg>
