<svg width="14" height="14" viewBox="0 0 14 14" fill="none" xmlns="http://www.w3.org/2000/svg">
<g clip-path="url(#clip0_36_167)">
<path d="M13.1499 0.479451C13.2281 0.553413 13.3042 0.629058 13.3796 0.705818C13.4052 0.731002 13.4309 0.756187 13.4572 0.782134C13.8139 1.14084 14.0116 1.51979 14.0154 2.02686C14.0088 2.48787 13.853 2.85357 13.5375 3.18636C13.521 3.20389 13.5045 3.22142 13.4875 3.23947C13.2532 3.48666 13.0119 3.72701 12.7712 3.96793C12.6987 4.04052 12.6263 4.11318 12.5539 4.18583C12.38 4.36026 12.206 4.53456 12.032 4.70884C11.9663 4.77463 11.9006 4.84042 11.8349 4.90622C11.5449 5.19675 11.2548 5.48724 10.9647 5.77763C10.894 5.84832 10.8234 5.91901 10.7528 5.9897C10.7352 6.00726 10.7176 6.02483 10.6996 6.04293C10.4143 6.32838 10.1293 6.61407 9.84445 6.89985C9.55123 7.19397 9.2578 7.4879 8.96417 7.78162C8.79959 7.94626 8.6351 8.11098 8.47084 8.27594C8.33122 8.41616 8.19141 8.55618 8.05136 8.69597C7.97998 8.76723 7.90868 8.83858 7.83762 8.91017C7.76054 8.98782 7.68304 9.06504 7.6055 9.14222C7.5832 9.16482 7.56091 9.18741 7.53794 9.21069C7.34351 9.40295 7.15583 9.49056 6.89509 9.56129C6.86042 9.57098 6.86042 9.57098 6.82505 9.58088C6.74917 9.60204 6.67319 9.62287 6.59721 9.6437C6.54372 9.65853 6.49024 9.67337 6.43675 9.68823C6.32465 9.71932 6.21251 9.75027 6.10033 9.78109C5.95823 9.82015 5.8162 9.85949 5.67421 9.89893C5.56361 9.92964 5.45298 9.96023 5.34235 9.99078C5.29008 10.0052 5.23782 10.0197 5.18556 10.0342C5.04021 10.0744 4.89469 10.1139 4.74887 10.1524C4.69854 10.1658 4.64829 10.1795 4.59809 10.1933C4.52077 10.2146 4.44327 10.2351 4.36567 10.2553C4.33073 10.2652 4.33073 10.2652 4.29509 10.2753C4.12912 10.3173 4.03629 10.3045 3.88281 10.2266C3.8007 10.1297 3.76127 10.0509 3.74609 9.92579C3.75819 9.85022 3.75819 9.85022 3.78046 9.76637C3.78883 9.73435 3.79719 9.70233 3.80581 9.66935C3.81537 9.63402 3.82495 9.5987 3.83453 9.56338C3.84447 9.52594 3.85439 9.4885 3.86429 9.45106C3.89733 9.32662 3.93106 9.20237 3.96484 9.07813C3.97682 9.03392 3.9888 8.98971 4.00078 8.94549C4.077 8.66449 4.15438 8.38381 4.23235 8.10328C4.26626 7.98124 4.29989 7.85911 4.33346 7.73697C4.35977 7.64143 4.38628 7.54595 4.41284 7.45048C4.42535 7.40542 4.43777 7.36034 4.45012 7.31525C4.46728 7.25265 4.48473 7.19015 4.50224 7.12765C4.50957 7.10053 4.50957 7.10053 4.51705 7.07286C4.59483 6.79878 4.72322 6.63587 4.92237 6.43893C4.96018 6.40089 4.96018 6.40089 4.99876 6.36209C5.0684 6.29204 5.13838 6.22233 5.20843 6.15268C5.28404 6.07737 5.35934 6.00174 5.43469 5.92616C5.58223 5.77823 5.73007 5.6306 5.87801 5.48306C6.05049 5.31105 6.22269 5.13876 6.39488 4.96646C6.70234 4.65885 7.01007 4.35151 7.31794 4.04431C7.61624 3.74667 7.91431 3.44879 8.21214 3.15067C8.53676 2.82574 8.86152 2.50093 9.18649 2.17635C9.22121 2.14167 9.25592 2.107 9.29064 2.07233C9.30772 2.05527 9.3248 2.03821 9.34239 2.02064C9.46231 1.90084 9.58215 1.78096 9.70195 1.66104C9.84819 1.51467 9.99458 1.36844 10.1412 1.22241C10.2158 1.14799 10.2905 1.07352 10.3649 0.998858C10.4459 0.917666 10.5271 0.836801 10.6084 0.755959C10.6316 0.732674 10.6547 0.709389 10.6785 0.685398C11.3942 -0.0228466 12.3429 -0.223022 13.1499 0.479451ZM11.1836 1.23048C11.1622 1.25187 11.1407 1.27327 11.1187 1.29531C11.104 1.31001 11.0893 1.32471 11.0742 1.33985C11.118 1.44855 11.1938 1.52142 11.2757 1.60221C11.2981 1.62463 11.2981 1.62463 11.321 1.64751C11.3702 1.69676 11.4197 1.74581 11.4692 1.79487C11.5035 1.82903 11.5377 1.86321 11.572 1.89739C11.662 1.98724 11.7522 2.07692 11.8425 2.16657C11.9346 2.25811 12.0266 2.34982 12.1185 2.4415C12.2989 2.62131 12.4795 2.80095 12.6602 2.98048C12.9314 2.85296 13.1528 2.56212 13.2583 2.28492C13.3203 2.07057 13.3056 1.87077 13.2228 1.66392C13.1445 1.52244 13.0338 1.41188 12.9199 1.29882C12.8793 1.25819 12.8396 1.21677 12.8001 1.17504C12.5708 0.935361 12.3681 0.772288 12.0261 0.753669C11.6565 0.764258 11.429 0.982711 11.1836 1.23048ZM10.4915 1.91916C10.4762 1.93453 10.4608 1.9499 10.445 1.96573C10.4273 1.98335 10.4096 2.00097 10.3914 2.01913C10.3718 2.03881 10.3522 2.05849 10.332 2.07877C10.3113 2.09943 10.2907 2.12008 10.2693 2.14137C10.1995 2.21121 10.1297 2.28115 10.0599 2.35109C10.01 2.40093 9.9602 2.45077 9.91035 2.5006C9.80273 2.60821 9.69516 2.71587 9.58762 2.82356C9.43214 2.97926 9.27658 3.13489 9.121 3.2905C8.86862 3.54294 8.6163 3.79545 8.36402 4.04799C8.11888 4.29338 7.87372 4.53874 7.62851 4.78406C7.61341 4.79917 7.59831 4.81428 7.58275 4.82984C7.50698 4.90564 7.43122 4.98144 7.35546 5.05724C6.72647 5.68651 6.09758 6.31588 5.46875 6.94532C5.49451 6.97562 5.5203 7.00589 5.54611 7.03615C5.56047 7.05301 5.57483 7.06986 5.58962 7.08723C5.65166 7.15833 5.71768 7.22486 5.78447 7.29149C5.79863 7.30565 5.81279 7.31982 5.82738 7.33441C5.87347 7.38048 5.91966 7.42646 5.96585 7.47243C5.99811 7.50465 6.03037 7.53687 6.06262 7.56909C6.14698 7.65334 6.23142 7.73752 6.31588 7.82167C6.40227 7.90778 6.48858 7.99396 6.57489 8.08014C6.74386 8.24882 6.91292 8.41741 7.08203 8.58595C7.22217 8.46864 7.35336 8.3458 7.48227 8.21634C7.50242 8.19621 7.52257 8.17608 7.54333 8.15535C7.61044 8.08828 7.67746 8.02112 7.74447 7.95395C7.79271 7.9057 7.84096 7.85746 7.88922 7.80922C7.99289 7.70555 8.09653 7.60184 8.20012 7.49809C8.3499 7.34809 8.49976 7.19816 8.64963 7.04825C8.89282 6.805 9.13595 6.56169 9.37905 6.31834C9.6151 6.08203 9.85119 5.84575 10.0873 5.60951C10.1019 5.59493 10.1165 5.58035 10.1315 5.56534C10.2046 5.4922 10.2777 5.41907 10.3508 5.34594C10.9566 4.73983 11.5623 4.13362 12.168 3.52735C12.1422 3.49705 12.1164 3.46678 12.0906 3.43653C12.0762 3.41967 12.0619 3.40281 12.0471 3.38544C11.9851 3.31441 11.9193 3.24784 11.8527 3.18118C11.8386 3.16702 11.8245 3.15286 11.8099 3.13826C11.7639 3.09219 11.7179 3.04621 11.6718 3.00024C11.6396 2.96802 11.6074 2.9358 11.5753 2.90358C11.5082 2.83645 11.441 2.76938 11.3739 2.70233C11.2876 2.61621 11.2014 2.52996 11.1153 2.44367C11.049 2.37731 10.9827 2.31102 10.9164 2.24474C10.8845 2.21294 10.8527 2.18111 10.821 2.14926C10.7768 2.10502 10.7325 2.06086 10.6882 2.01672C10.6504 1.97897 10.6504 1.97897 10.6119 1.94046C10.5504 1.87355 10.5504 1.87355 10.4915 1.91916ZM5.11328 7.65626C5.05259 7.87633 4.99198 8.09643 4.93146 8.31655C4.90336 8.41875 4.87523 8.52095 4.84704 8.62313C4.81985 8.72169 4.79273 8.82026 4.76566 8.91885C4.75531 8.95652 4.74493 8.99417 4.73453 9.03182C4.71999 9.08444 4.70555 9.13709 4.69111 9.18974C4.68285 9.21973 4.67459 9.24973 4.66608 9.28063C4.64624 9.34823 4.64624 9.34823 4.64844 9.40626C5.02679 9.32227 5.3987 9.21884 5.77124 9.11231C5.82972 9.09568 5.8882 9.07905 5.94668 9.06243C6.08818 9.0222 6.22965 8.98186 6.37109 8.94141C6.33023 8.84618 6.27578 8.78463 6.2027 8.71169C6.17925 8.68816 6.1558 8.66463 6.13164 8.64038C6.10629 8.61523 6.08094 8.59007 6.05482 8.56416C6.0286 8.53796 6.00238 8.51175 5.97617 8.48554C5.92134 8.43075 5.86643 8.37606 5.81143 8.32144C5.7408 8.25127 5.67034 8.18092 5.59995 8.1105C5.54589 8.05645 5.49176 8.00247 5.4376 7.94851C5.3989 7.90994 5.36024 7.87133 5.32159 7.83272C5.29822 7.80953 5.27486 7.78634 5.25079 7.76245C5.23013 7.7419 5.20947 7.72134 5.18818 7.70016C5.14806 7.65317 5.14806 7.65317 5.11328 7.65626Z" fill="white"/>
<path d="M1.87978 1.38348C1.9126 1.38329 1.94542 1.3831 1.97922 1.38291C2.06803 1.3825 2.15682 1.38245 2.24562 1.38261C2.32011 1.38269 2.39459 1.38252 2.46907 1.38236C2.64476 1.38198 2.82046 1.38202 2.99615 1.38233C3.17691 1.38264 3.35765 1.38226 3.53841 1.38152C3.69431 1.38092 3.8502 1.38074 4.0061 1.3809C4.09892 1.38099 4.19173 1.38093 4.28454 1.38045C4.38787 1.38005 4.49118 1.38034 4.59451 1.38081C4.62496 1.38054 4.65542 1.38028 4.6868 1.38C4.86246 1.38168 4.97038 1.3992 5.11325 1.5039C5.20212 1.60423 5.20802 1.69873 5.20308 1.82797C5.19204 1.91114 5.16759 1.95972 5.11325 2.02343C4.98765 2.11361 4.88187 2.13622 4.72957 2.13621C4.70182 2.13628 4.67408 2.13635 4.64549 2.13642C4.6152 2.13637 4.58492 2.13631 4.55372 2.13625C4.52169 2.1363 4.48967 2.13635 4.45667 2.13641C4.38705 2.13651 4.31744 2.13657 4.24782 2.13658C4.13745 2.13661 4.02709 2.13696 3.91672 2.13739C3.89806 2.13746 3.8794 2.13753 3.86017 2.1376C3.82201 2.13775 3.78385 2.13789 3.74568 2.13804C3.48886 2.13899 3.23205 2.13972 2.97523 2.13966C2.80186 2.13961 2.62849 2.14005 2.45512 2.14104C2.36353 2.14154 2.27196 2.14173 2.18037 2.14147C2.07789 2.1412 1.97544 2.14178 1.87296 2.14255C1.84312 2.14227 1.81328 2.14199 1.78253 2.14171C1.50115 2.14546 1.28472 2.23088 1.06637 2.40624C1.04833 2.40624 1.03028 2.40624 1.01169 2.40624C1.00404 2.42228 0.99639 2.43832 0.988509 2.45484C0.95923 2.51132 0.926534 2.56084 0.890349 2.61303C0.73435 2.8644 0.726301 3.1344 0.727649 3.42291C0.727535 3.46138 0.727385 3.49985 0.727203 3.53831C0.72681 3.64326 0.726923 3.7482 0.727126 3.85315C0.727255 3.96662 0.726912 4.0801 0.726633 4.19358C0.726164 4.4156 0.72614 4.63762 0.726283 4.85964C0.726394 5.04018 0.726354 5.22071 0.726208 5.40125C0.726177 5.43985 0.726177 5.43985 0.726146 5.47923C0.726104 5.53152 0.726062 5.5838 0.72602 5.63609C0.725645 6.12598 0.725793 6.61586 0.726107 7.10575C0.726379 7.55346 0.726025 8.00118 0.725371 8.44889C0.724703 8.90914 0.724441 9.36938 0.724623 9.82963C0.724718 10.0878 0.724658 10.346 0.724178 10.6042C0.723775 10.824 0.723759 11.0437 0.724235 11.2635C0.724467 11.3755 0.724528 11.4876 0.724108 11.5996C0.723727 11.7023 0.723862 11.8051 0.724388 11.9078C0.724538 11.9622 0.724156 12.0165 0.723749 12.0708C0.726059 12.3549 0.769546 12.654 0.957 12.8789C0.976245 12.9023 0.976245 12.9023 0.995879 12.9262C1.14252 13.09 1.32569 13.1659 1.53122 13.2344C1.5874 13.237 1.64367 13.2379 1.69991 13.238C1.73545 13.2381 1.77099 13.2382 1.80761 13.2383C1.84728 13.2383 1.88695 13.2382 1.92663 13.2382C1.96859 13.2383 2.01056 13.2384 2.05252 13.2385C2.16815 13.2387 2.28378 13.2387 2.3994 13.2387C2.52399 13.2388 2.64858 13.239 2.77317 13.2392C3.04576 13.2396 3.31836 13.2397 3.59095 13.2398C3.76113 13.2399 3.9313 13.24 4.10148 13.2402C4.57253 13.2405 5.04359 13.2408 5.51464 13.2409C5.55989 13.2409 5.55989 13.2409 5.60604 13.2409C5.65139 13.2409 5.65139 13.2409 5.69766 13.2409C5.75893 13.2409 5.8202 13.2409 5.88146 13.2409C5.92705 13.2409 5.92705 13.2409 5.97356 13.241C6.46592 13.2411 6.95827 13.2415 7.45063 13.2422C7.95599 13.2428 8.46134 13.2432 8.96669 13.2432C9.25049 13.2432 9.53428 13.2434 9.81807 13.2439C10.0598 13.2443 10.3014 13.2444 10.5431 13.2442C10.6664 13.2441 10.7897 13.2441 10.913 13.2445C11.026 13.2449 11.1389 13.2448 11.2519 13.2445C11.2927 13.2444 11.3335 13.2445 11.3743 13.2448C11.7486 13.2468 11.9934 13.1858 12.2773 12.9336C12.4914 12.6882 12.5357 12.4242 12.5339 12.1073C12.5341 12.0747 12.5342 12.0422 12.5344 12.0086C12.5347 11.92 12.5347 11.8313 12.5345 11.7427C12.5345 11.6496 12.535 11.5565 12.5354 11.4634C12.5365 11.2071 12.5368 10.9507 12.5371 10.6944C12.5374 10.459 12.5379 10.2237 12.539 9.98838C12.5394 9.89585 12.5397 9.80333 12.5395 9.71081C12.5394 9.60773 12.5398 9.50466 12.5402 9.40158C12.54 9.35587 12.54 9.35587 12.5397 9.30923C12.5409 9.15756 12.5446 9.04371 12.6328 8.91406C12.726 8.82994 12.7873 8.78088 12.9131 8.76879C13.064 8.78137 13.1394 8.84136 13.2383 8.95272C13.3198 9.08035 13.304 9.22566 13.3027 9.37206C13.303 9.42038 13.303 9.42038 13.3032 9.46968C13.3035 9.55777 13.3033 9.64585 13.3028 9.73395C13.3024 9.82657 13.3026 9.91919 13.3027 10.0118C13.3028 10.1676 13.3024 10.3233 13.3018 10.4791C13.3011 10.6582 13.301 10.8374 13.3013 11.0165C13.3016 11.1897 13.3015 11.3628 13.3011 11.536C13.3009 11.6092 13.3009 11.6825 13.301 11.7557C13.3015 12.3522 13.2724 12.8482 12.9062 13.3437C12.8942 13.3603 12.8822 13.3768 12.8699 13.3938C12.5914 13.7483 12.1621 13.9238 11.7304 14C11.5849 14.0137 11.4403 14.0147 11.2942 14.0137C11.2522 14.0138 11.2101 14.014 11.1681 14.0142C11.0538 14.0146 10.9396 14.0143 10.8253 14.0139C10.7016 14.0136 10.5779 14.0139 10.4541 14.0142C10.2123 14.0145 9.97044 14.0143 9.7286 14.0139C9.4466 14.0135 9.16459 14.0135 8.88259 14.0137C8.37925 14.0138 7.87591 14.0134 7.37257 14.0127C6.88481 14.0121 6.39706 14.0119 5.9093 14.0122C5.37732 14.0125 4.84534 14.0126 4.31336 14.0122C4.25657 14.0121 4.19979 14.0121 4.14301 14.012C4.10111 14.012 4.10111 14.012 4.05836 14.012C3.86206 14.0118 3.66576 14.0119 3.46945 14.012C3.23008 14.0121 2.99071 14.012 2.75134 14.0114C2.62935 14.0112 2.50736 14.011 2.38536 14.0112C2.27347 14.0114 2.16158 14.0112 2.04969 14.0108C2.00943 14.0107 1.96918 14.0107 1.92893 14.0109C1.58968 14.0123 1.25417 13.9801 0.950164 13.8188C0.931908 13.8094 0.913652 13.8 0.894842 13.7903C0.728993 13.7009 0.594931 13.5893 0.464812 13.4531C0.447541 13.4364 0.43027 13.4196 0.412475 13.4024C0.0810203 13.06 -0.0127848 12.6083 -0.0106319 12.1487C-0.0107462 12.1086 -0.0108961 12.0686 -0.0110782 12.0286C-0.0114715 11.9193 -0.0113579 11.8101 -0.0111556 11.7008C-0.0110258 11.5827 -0.0113687 11.4646 -0.0116483 11.3465C-0.0121177 11.1153 -0.0121414 10.8842 -0.011998 10.6531C-0.0118873 10.4651 -0.0119271 10.2772 -0.0120731 10.0892C-0.0120935 10.0624 -0.0121142 10.0356 -0.0121352 10.008C-0.0121771 9.9536 -0.012219 9.89917 -0.0122612 9.84474C-0.0126363 9.33471 -0.0124881 8.82469 -0.0121742 8.31467C-0.0119027 7.84859 -0.0122564 7.38251 -0.0129107 6.91642C-0.0135782 6.43729 -0.0138403 5.95817 -0.0136586 5.47904C-0.0135632 5.21027 -0.0136233 4.9415 -0.0141029 4.67273C-0.0145062 4.44391 -0.0145218 4.2151 -0.0140462 3.98628C-0.013814 3.86965 -0.0137534 3.75304 -0.0141734 3.63641C-0.0145539 3.52942 -0.0144194 3.42244 -0.0138935 3.31545C-0.0137912 3.27698 -0.0138689 3.2385 -0.0141563 3.20003C-0.0177164 2.68643 0.139987 2.27324 0.498031 1.90658C0.885381 1.52738 1.34312 1.38128 1.87978 1.38348Z" fill="white"/>
</g>
<defs>
<clipPath id="clip0_36_167">
<rect width="14" height="14" fill="white"/>
</clipPath>
</defs>
</svg>
