<svg width="25" height="25" viewBox="0 0 25 25" fill="none" xmlns="http://www.w3.org/2000/svg">
<path d="M15.2932 0.326937C15.3759 0.346297 15.3759 0.346297 15.4602 0.366049C17.2813 0.803527 19.0032 1.64042 20.4262 2.86177C20.4794 2.90686 20.5326 2.95195 20.5874 2.99841C21.347 3.66263 22.0684 4.37529 22.6442 5.20649C22.6726 5.24749 22.701 5.28848 22.7303 5.33072C23.6975 6.7434 24.3506 8.29169 24.7355 9.9593C24.7468 10.0068 24.7582 10.0543 24.7699 10.1033C25.1386 11.7208 25.0666 13.6811 24.6721 15.2824C24.6578 15.3406 24.6436 15.3987 24.6289 15.4586C24.1214 17.4669 23.1729 19.3127 21.7667 20.8375C21.5946 21.0247 21.429 21.2172 21.2637 21.4103C19.61 23.1282 17.3314 24.1882 15.0397 24.7247C14.992 24.7361 14.9443 24.7476 14.8952 24.7594C13.2778 25.1279 11.3176 25.0558 9.71658 24.6613C9.65844 24.6471 9.6003 24.6328 9.54039 24.6181C7.52933 24.1099 5.68397 23.1598 4.15728 21.7517C4.02342 21.6289 3.88647 21.5111 3.74784 21.3938C3.49377 21.171 3.27753 20.9293 3.06265 20.669C3.02197 20.621 3.02197 20.621 2.98046 20.572C1.68114 19.0362 0.8155 17.2313 0.337703 15.2824C0.324102 15.2272 0.310501 15.172 0.296487 15.1152C-0.0770747 13.516 -0.112124 11.5618 0.274332 9.9593C0.287596 9.9034 0.300861 9.84751 0.314527 9.78992C0.59426 8.6405 0.986211 7.58044 1.54175 6.53727C1.5615 6.49955 1.58124 6.46183 1.60159 6.42297C2.04275 5.58594 2.60794 4.831 3.25226 4.13933C3.37157 4.01097 3.48453 3.87906 3.59734 3.745C5.14272 1.98537 7.47886 0.875559 9.71658 0.326937C9.77178 0.313336 9.82698 0.299735 9.88386 0.285721C11.597 -0.11446 13.5868 -0.088372 15.2932 0.326937ZM4.33006 3.8757C4.29599 3.90805 4.26191 3.9404 4.22681 3.97373C3.39879 4.765 2.75351 5.61322 2.17546 6.60064C2.15069 6.64278 2.12593 6.68491 2.10042 6.72831C1.09043 8.47196 0.625625 10.4498 0.630793 12.4545C0.630848 12.5074 0.630904 12.5602 0.630961 12.6146C0.639975 15.2247 1.49322 17.638 3.06265 19.7184C3.10455 19.7747 3.14646 19.831 3.18964 19.889C4.13333 21.0986 5.29553 22.0496 6.61141 22.8236C6.64978 22.8463 6.68814 22.869 6.72766 22.8924C9.34538 24.4215 12.5859 24.7692 15.4992 24.0118C17.4927 23.4677 19.2232 22.4981 20.7157 21.0723C20.8031 20.989 20.8915 20.9068 20.98 20.8247C21.7214 20.1154 22.3284 19.2781 22.8343 18.3876C22.8758 18.3165 22.9172 18.2455 22.9598 18.1723C23.5381 17.1549 23.9111 16.0411 24.1651 14.9022C24.1807 14.8376 24.1807 14.8376 24.1966 14.7717C24.856 11.9614 24.1616 8.8112 22.7135 6.36622C22.474 5.98863 22.2164 5.62674 21.9471 5.26986C21.9052 5.21357 21.8633 5.15729 21.8202 5.0993C21.1441 4.23272 20.3231 3.41508 19.4123 2.7984C19.3685 2.76855 19.3247 2.7387 19.2795 2.70795C14.6327 -0.42108 8.41207 -0.00850056 4.33006 3.8757Z" fill="#693521"/>
<path d="M17.5112 14.015C18.5181 14.9705 19.1312 16.4091 19.1787 17.79C19.1927 18.6958 19.1927 18.6958 19.1589 18.958C18.9687 19.1481 18.7339 19.1568 18.4776 19.2035C18.3903 19.2197 18.3903 19.2197 18.3012 19.2362C17.4718 19.3847 16.6369 19.4936 15.8002 19.5917C15.7366 19.5994 15.673 19.6071 15.6074 19.615C12.5266 19.9713 8.99944 19.88 5.97774 19.0847C5.78506 18.892 5.83064 18.7019 5.82688 18.4382C5.8297 16.7515 6.28757 15.295 7.46522 14.0388C9.94939 11.7044 15.0066 11.7833 17.5112 14.015ZM7.68875 14.6487C6.721 15.7624 6.35626 17.1333 6.42134 18.5777C7.22729 18.7519 8.03476 18.8742 8.85319 18.9698C8.89831 18.9752 8.94343 18.9805 8.98991 18.986C10.1378 19.121 11.2743 19.1633 12.4297 19.1639C12.5026 19.1639 12.5754 19.164 12.6505 19.164C15.6574 19.173 15.6574 19.173 18.5885 18.5777C18.6551 17.0994 18.2728 15.7037 17.2577 14.5854C15.9902 13.3178 14.2204 12.997 12.4891 12.9813C10.7604 12.9865 8.92816 13.3486 7.68875 14.6487Z" fill="#693521"/>
<path d="M14.5961 5.39665C15.4017 6.01874 15.8941 6.84634 16.0376 7.85549C16.1213 8.91061 15.8148 9.85254 15.1506 10.6683C14.522 11.352 13.6583 11.7503 12.7383 11.811C11.7927 11.8359 10.8859 11.5612 10.1404 10.9654C9.4124 10.264 8.98922 9.35171 8.9519 8.33968C8.97191 7.30275 9.33477 6.4559 10.0394 5.69742C11.2562 4.53572 13.2403 4.39601 14.5961 5.39665ZM10.2671 6.29176C9.70659 6.97427 9.46731 7.80183 9.54848 8.6756C9.70196 9.51557 10.1055 10.2127 10.8097 10.7C11.1269 10.9168 11.4308 11.0809 11.8078 11.1634C11.883 11.1805 11.883 11.1805 11.9598 11.1981C12.6847 11.3243 13.4713 11.1935 14.0891 10.7832C14.8203 10.206 15.3225 9.55604 15.4672 8.62138C15.5402 7.79132 15.281 7.01247 14.7862 6.34721C14.274 5.77594 13.5414 5.38057 12.7735 5.31199C11.7936 5.30224 10.9665 5.56847 10.2671 6.29176Z" fill="#693521"/>
</svg>
