<svg width="14" height="15" viewBox="0 0 14 15" fill="currentColor" xmlns="http://www.w3.org/2000/svg">
<path d="M5.69372 0.500006C5.72472 0.500031 5.75572 0.500056 5.78767 0.500081C7.27418 0.505549 8.65123 1.09655 9.72262 2.1297C10.4335 2.85019 10.9784 3.78722 11.2183 4.77433C11.2319 4.82921 11.2455 4.88409 11.2596 4.94063C11.5879 6.41509 11.29 7.98506 10.5009 9.26053C10.3565 9.48369 10.1979 9.69476 10.0306 9.90123C10.2314 10.1422 10.4431 10.3662 10.6656 10.5871C10.7007 10.6221 10.7358 10.6571 10.772 10.6932C10.8477 10.7688 10.9234 10.8442 10.9992 10.9197C11.1191 11.039 11.2389 11.1586 11.3586 11.2781C11.6988 11.6179 12.0392 11.9574 12.3798 12.2967C12.5886 12.5046 12.7971 12.7128 13.0055 12.9211C13.0849 13.0004 13.1644 13.0796 13.2439 13.1587C13.3549 13.269 13.4656 13.3796 13.5762 13.4903C13.6092 13.5229 13.6422 13.5556 13.6762 13.5892C13.7063 13.6195 13.7364 13.6497 13.7674 13.6808C13.7936 13.7069 13.8197 13.733 13.8467 13.7598C13.9709 13.905 14.006 13.9907 13.9992 14.1841C13.9592 14.3415 13.9592 14.3415 13.8879 14.4302C13.7244 14.5016 13.5833 14.519 13.4111 14.4788C13.2583 14.3777 13.1379 14.249 13.0118 14.1167C12.9737 14.0782 12.9357 14.0398 12.8964 14.0001C12.7925 13.8948 12.6895 13.7888 12.5867 13.6824C12.4789 13.5712 12.3699 13.4611 12.261 13.3509C12.0317 13.1185 11.8034 12.885 11.5754 12.6512C11.2318 12.2989 10.8873 11.9473 10.5417 11.5969C10.4334 11.4871 10.3255 11.377 10.2181 11.2663C10.0986 11.1432 9.97838 11.0207 9.85801 10.8983C9.82251 10.8613 9.787 10.8243 9.75042 10.7862C9.71764 10.7532 9.68487 10.7201 9.65109 10.686C9.62277 10.657 9.59444 10.6279 9.56525 10.5979C9.48557 10.5313 9.48557 10.5313 9.38596 10.5521C9.27999 10.596 9.20757 10.654 9.11984 10.7281C7.96547 11.6452 6.46338 12.0126 5.00742 11.8469C3.48738 11.6422 2.12463 10.8797 1.16838 9.67235C0.245079 8.37992 -0.169684 6.86636 0.0640071 5.2785C0.0909625 5.12401 0.124783 4.97207 0.163389 4.82011C0.174784 4.77498 0.174784 4.77498 0.186408 4.72894C0.555437 3.32339 1.48103 2.03153 2.74119 1.29268C3.68158 0.772889 4.61357 0.498534 5.69372 0.500006ZM2.01961 2.97274C1.57494 3.4901 1.24091 4.07862 1.03134 4.72856C1.01693 4.77297 1.01693 4.77297 1.00223 4.81827C0.625622 6.04276 0.811745 7.38672 1.38983 8.51222C1.58126 8.87016 1.81018 9.18765 2.08202 9.48925C2.1167 9.52778 2.15138 9.56631 2.18712 9.60601C3.03105 10.496 4.23898 11.053 5.46638 11.1007C6.89046 11.1271 8.10795 10.6434 9.14341 9.66109C10.0446 8.78286 10.5558 7.5657 10.5917 6.31001C10.6094 4.9191 10.052 3.67694 9.10271 2.68008C8.07873 1.68992 6.77538 1.30196 5.3793 1.32397C4.0828 1.37218 2.88023 2.01301 2.01961 2.97274Z" fill="currentColor"/>
</svg>
