<svg width="30" height="30" viewBox="0 0 30 30" fill="currentColor" xmlns="http://www.w3.org/2000/svg">
<g clip-path="url(#clip0_36_774)">
<path d="M22.0716 2.15947C22.1362 2.15917 22.1362 2.15917 22.202 2.15887C22.3431 2.15832 22.4843 2.1582 22.6254 2.15814C22.7245 2.15795 22.8235 2.15775 22.9225 2.15754C23.1298 2.15719 23.337 2.15709 23.5443 2.15712C23.8083 2.15713 24.0723 2.15633 24.3364 2.15532C24.5409 2.15466 24.7454 2.15455 24.9499 2.15458C25.0471 2.15451 25.1444 2.15425 25.2417 2.1538C26.765 2.14732 26.765 2.14732 27.3633 2.69532C27.9024 3.28797 27.8492 4.05493 27.8461 4.81001C27.8462 4.90459 27.8463 4.99916 27.8464 5.09373C27.8467 5.35215 27.8462 5.61057 27.8456 5.86899C27.8451 6.14821 27.8453 6.42743 27.8454 6.70665C27.8455 7.18994 27.8451 7.67322 27.8444 8.15651C27.8435 8.85525 27.8432 9.55399 27.843 10.2527C27.8428 11.3865 27.842 12.5203 27.8409 13.654C27.8398 14.7551 27.839 15.8562 27.8385 16.9574C27.8385 17.0253 27.8384 17.0932 27.8384 17.1632C27.8382 17.5039 27.8381 17.8446 27.8379 18.1853C27.8367 21.0103 27.8347 23.8352 27.832 26.6602C27.8873 26.6586 27.9426 26.6571 27.9995 26.6555C28.2054 26.6505 28.4112 26.6468 28.617 26.6441C28.706 26.6426 28.7949 26.6406 28.8839 26.6381C29.012 26.6345 29.1401 26.6328 29.2683 26.6316C29.3453 26.63 29.4223 26.6285 29.5017 26.6269C29.7576 26.6683 29.8411 26.753 30 26.9531C30.053 27.1351 30.0421 27.2962 30 27.4805C29.8435 27.6891 29.7271 27.7904 29.4727 27.832C29.3123 27.8376 29.1533 27.8401 28.9929 27.8397C28.9439 27.8399 28.8949 27.84 28.8444 27.8401C28.679 27.8404 28.5137 27.8403 28.3484 27.8403C28.2291 27.8404 28.1098 27.8406 27.9905 27.8408C27.6618 27.8413 27.3331 27.8414 27.0044 27.8414C26.6502 27.8415 26.296 27.842 25.9419 27.8424C25.1267 27.8432 24.3115 27.8435 23.4963 27.8438C23.0935 27.8439 22.6908 27.8442 22.288 27.8444C20.9096 27.8451 19.5311 27.8458 18.1527 27.846C18.0661 27.846 17.9796 27.846 17.8931 27.846C17.8063 27.846 17.7196 27.846 17.6328 27.846C17.4588 27.8461 17.2848 27.8461 17.1107 27.8461C17.0676 27.8461 17.0245 27.8461 16.98 27.8461C15.5805 27.8463 14.1811 27.8473 12.7816 27.8486C11.3023 27.8501 9.82297 27.8509 8.34366 27.851C8.18132 27.851 8.01898 27.851 7.85663 27.851C7.81666 27.851 7.77669 27.851 7.7355 27.851C7.09183 27.8511 6.44816 27.8517 5.80449 27.8526C5.15772 27.8534 4.51096 27.8536 3.86419 27.8531C3.51371 27.8529 3.16323 27.853 2.81275 27.8538C2.49206 27.8545 2.17137 27.8545 1.85068 27.8537C1.73451 27.8536 1.61835 27.8538 1.50219 27.8543C1.34452 27.855 1.18689 27.8545 1.02922 27.8538C0.961283 27.8545 0.961283 27.8545 0.89197 27.8552C0.592611 27.8523 0.382179 27.799 0.117203 27.6563C-0.000847001 27.4792 -0.019742 27.4267 -0.0256195 27.2241C-0.027961 27.1802 -0.0303024 27.1362 -0.0327148 27.0909C0.0175922 26.8791 0.125972 26.7959 0.292984 26.6602C0.498363 26.6269 0.498363 26.6269 0.73175 26.6316C0.772954 26.632 0.814157 26.6324 0.856609 26.6328C0.987403 26.6344 1.11805 26.6381 1.24879 26.6419C1.33779 26.6433 1.42679 26.6447 1.51579 26.6459C1.73323 26.6491 1.95059 26.6541 2.16798 26.6602C2.16788 26.6233 2.16777 26.5864 2.16766 26.5483C2.16506 25.6484 2.16313 24.7485 2.16191 23.8486C2.16131 23.4134 2.16049 22.9782 2.15914 22.5429C2.15797 22.1634 2.15722 21.7839 2.15696 21.4044C2.15681 21.2036 2.15645 21.0028 2.15559 20.8021C2.15474 20.5774 2.15463 20.3527 2.15468 20.128C2.15426 20.0622 2.15384 19.9964 2.1534 19.9285C2.15512 19.2696 2.22114 18.7205 2.68503 18.2259C3.08808 17.8474 3.49151 17.7271 4.03288 17.7302C4.10701 17.7296 4.10701 17.7296 4.18264 17.729C4.34469 17.728 4.5067 17.7282 4.66875 17.7285C4.78228 17.7282 4.89581 17.7279 5.00934 17.7276C5.24683 17.7271 5.48431 17.7272 5.7218 17.7278C6.02494 17.7285 6.32804 17.7273 6.63118 17.7256C6.86553 17.7245 7.09988 17.7245 7.33424 17.7248C7.44594 17.7248 7.55765 17.7245 7.66935 17.7238C9.04622 17.716 9.04622 17.716 9.56789 18.2225C9.97677 18.702 10.0707 19.2108 10.0595 19.822C10.0595 19.9336 10.0595 19.9336 10.0596 20.0475C10.0597 20.2491 10.0577 20.4507 10.0552 20.6524C10.053 20.864 10.0528 21.0756 10.0524 21.2872C10.0513 21.6869 10.0484 22.0865 10.0449 22.4862C10.0409 22.9416 10.039 23.397 10.0372 23.8525C10.0336 24.7884 10.0273 25.7243 10.0195 26.6602C10.3676 26.6602 10.7156 26.6602 11.0742 26.6602C11.0741 26.5821 11.0739 26.5041 11.0737 26.4237C11.0699 24.5707 11.067 22.7178 11.0653 20.8648C11.065 20.6366 11.0648 20.4085 11.0646 20.1803C11.0645 20.1349 11.0645 20.0895 11.0644 20.0427C11.0637 19.3076 11.0623 18.5725 11.0607 17.8374C11.059 17.0829 11.0581 16.3284 11.0577 15.574C11.0575 15.1085 11.0567 14.6431 11.0553 14.1777C11.0542 13.8206 11.0541 13.4635 11.0544 13.1064C11.0543 12.9601 11.054 12.8137 11.0533 12.6674C11.0524 12.4675 11.0526 12.2675 11.0531 12.0676C11.0526 12.0098 11.0521 11.9521 11.0515 11.8926C11.0551 11.3441 11.1812 10.8553 11.5762 10.4535C12.0178 10.0504 12.4752 9.95207 13.0636 9.95243C13.1097 9.95224 13.1557 9.95204 13.2032 9.95184C13.355 9.95128 13.5069 9.95117 13.6588 9.9511C13.7648 9.95092 13.8708 9.95072 13.9769 9.95051C14.1991 9.95016 14.4214 9.95005 14.6436 9.95009C14.9274 9.95009 15.2111 9.94929 15.4949 9.94828C15.7139 9.94763 15.933 9.94751 16.1521 9.94755C16.2566 9.94748 16.3612 9.94722 16.4657 9.94676C16.6125 9.94619 16.7593 9.94636 16.9061 9.94671C16.9487 9.94638 16.9912 9.94605 17.0351 9.94571C17.6378 9.94935 18.0554 10.092 18.4866 10.5164C18.7834 10.847 18.9332 11.2509 18.933 11.6925C18.9331 11.7461 18.9332 11.7996 18.9334 11.8548C18.9332 11.9134 18.933 11.972 18.9328 12.0323C18.9329 12.1259 18.9329 12.1259 18.933 12.2215C18.9331 12.4313 18.9328 12.6411 18.9324 12.8509C18.9324 13.001 18.9324 13.1511 18.9325 13.3012C18.9325 13.6248 18.9323 13.9484 18.932 14.2719C18.9315 14.7397 18.9314 15.2075 18.9313 15.6753C18.9312 16.4343 18.9308 17.1933 18.9302 17.9523C18.9297 18.6896 18.9293 19.4269 18.929 20.1642C18.929 20.2324 18.929 20.2324 18.929 20.3019C18.9289 20.5299 18.9288 20.7579 18.9287 20.9858C18.9281 22.8773 18.9271 24.7687 18.9258 26.6602C19.2738 26.6602 19.6219 26.6602 19.9805 26.6602C19.9803 26.5414 19.9801 26.4226 19.9798 26.3002C19.9747 23.4807 19.9709 20.6612 19.9685 17.8417C19.9682 17.4947 19.9679 17.1477 19.9676 16.8007C19.9675 16.7316 19.9675 16.6626 19.9674 16.5914C19.9664 15.4727 19.9646 14.354 19.9624 13.2352C19.9602 12.0875 19.9589 10.9397 19.9584 9.79189C19.9581 9.08356 19.9571 8.37524 19.9552 7.66692C19.954 7.18129 19.9536 6.69566 19.9539 6.21003C19.954 5.92979 19.9538 5.64956 19.9525 5.36931C19.9514 5.11264 19.9513 4.85599 19.9521 4.59932C19.9522 4.50657 19.952 4.41382 19.9512 4.32107C19.9461 3.63878 20.029 3.13599 20.5046 2.6246C20.9659 2.22212 21.4777 2.16118 22.0716 2.15947ZM21.2695 3.51563C21.1287 3.72688 21.1378 3.82053 21.1379 4.07176C21.1378 4.11074 21.1377 4.14972 21.1375 4.18988C21.1372 4.32144 21.1377 4.45298 21.1383 4.58454C21.1382 4.67943 21.1381 4.77432 21.138 4.86922C21.1377 5.1307 21.1382 5.39218 21.1388 5.65366C21.1393 5.93537 21.1391 6.21707 21.139 6.49878C21.1389 6.98709 21.1393 7.47541 21.14 7.96372C21.1409 8.66974 21.1412 9.37577 21.1414 10.0818C21.1416 11.2272 21.1424 12.3726 21.1435 13.518C21.1446 14.6308 21.1454 15.7437 21.1459 16.8565C21.146 16.9251 21.146 16.9936 21.146 17.0643C21.1462 17.4082 21.1463 17.7522 21.1465 18.0961C21.1477 20.9508 21.1498 23.8055 21.1524 26.6602C22.9699 26.6602 24.7875 26.6602 26.6602 26.6602C26.664 23.7625 26.6673 20.8648 26.6691 17.967C26.6694 17.6251 26.6696 17.2832 26.6698 16.9413C26.6699 16.8732 26.6699 16.8051 26.67 16.735C26.6707 15.6321 26.6721 14.5291 26.6737 13.4262C26.6754 12.2949 26.6764 11.1636 26.6767 10.0323C26.677 9.33399 26.6777 8.63566 26.6791 7.93732C26.6801 7.45875 26.6804 6.98019 26.6801 6.50163C26.68 6.22532 26.6802 5.94902 26.6811 5.67272C26.682 5.41985 26.682 5.167 26.6814 4.91414C26.6813 4.82257 26.6816 4.73101 26.6821 4.63945C26.6828 4.51509 26.6824 4.39078 26.6818 4.26642C26.6819 4.16276 26.6819 4.16276 26.682 4.05701C26.6571 3.84082 26.5976 3.70061 26.4844 3.51563C26.2255 3.33878 25.9898 3.31441 25.6843 3.31711C25.6408 3.3168 25.5974 3.31649 25.5525 3.31617C25.4097 3.3154 25.2668 3.31591 25.1239 3.31651C25.0241 3.31639 24.9243 3.31622 24.8245 3.316C24.6157 3.31574 24.4068 3.31611 24.198 3.31694C23.9308 3.31794 23.6637 3.31736 23.3965 3.31631C23.1905 3.31567 22.9845 3.31588 22.7785 3.31633C22.6801 3.31645 22.5816 3.3163 22.4831 3.31589C22.3452 3.31545 22.2074 3.31613 22.0696 3.31711C22.009 3.31657 22.009 3.31657 21.9473 3.31603C21.6798 3.31952 21.4959 3.37338 21.2695 3.51563ZM12.3633 11.3086C12.2561 11.4787 12.2315 11.6086 12.2317 11.8079C12.2315 11.861 12.2312 11.9142 12.231 11.9689C12.2313 12.027 12.2317 12.0852 12.232 12.1451C12.2319 12.207 12.2318 12.2689 12.2317 12.3327C12.2315 12.5409 12.2322 12.7491 12.2328 12.9573C12.2328 13.1063 12.2328 13.2552 12.2328 13.4042C12.2327 13.7253 12.2331 14.0463 12.2337 14.3674C12.2347 14.8316 12.235 15.2958 12.2351 15.76C12.2354 16.5132 12.2362 17.2663 12.2373 18.0194C12.2383 18.751 12.2392 19.4827 12.2397 20.2143C12.2397 20.2594 12.2397 20.3045 12.2398 20.3509C12.2399 20.5771 12.2401 20.8034 12.2402 21.0296C12.2414 22.9064 12.2436 24.7833 12.2461 26.6602C14.0637 26.6602 15.8813 26.6602 17.7539 26.6602C17.7578 24.7393 17.761 22.8185 17.7629 20.8976C17.7631 20.6709 17.7633 20.4442 17.7636 20.2175C17.7636 20.1724 17.7637 20.1272 17.7637 20.0807C17.7645 19.3497 17.7659 18.6186 17.7675 17.8875C17.7691 17.1375 17.7701 16.3875 17.7705 15.6376C17.7707 15.1747 17.7715 14.7118 17.7729 14.2489C17.7739 13.8941 17.774 13.5394 17.7738 13.1846C17.7739 13.0389 17.7742 12.8933 17.7749 12.7476C17.7757 12.5491 17.7755 12.3506 17.7751 12.1521C17.7756 12.0941 17.7761 12.0362 17.7766 11.9765C17.7747 11.6881 17.7716 11.4813 17.5781 11.25C17.343 11.1122 17.1036 11.1158 16.838 11.1167C16.7939 11.1164 16.7498 11.1161 16.7045 11.1158C16.5594 11.115 16.4143 11.1151 16.2692 11.1152C16.168 11.115 16.0668 11.1147 15.9655 11.1144C15.7536 11.114 15.5417 11.114 15.3297 11.1143C15.0586 11.1147 14.7874 11.1137 14.5162 11.1123C14.3073 11.1114 14.0983 11.1114 13.8894 11.1116C13.7894 11.1116 13.6894 11.1112 13.5895 11.1107C13.4495 11.1099 13.3096 11.1103 13.1697 11.111C13.1286 11.1106 13.0876 11.1101 13.0454 11.1096C12.7762 11.1125 12.589 11.161 12.3633 11.3086ZM3.51564 19.043C3.29956 19.4017 3.31597 19.7515 3.3199 20.1613C3.31988 20.2316 3.31985 20.302 3.31982 20.3745C3.31993 20.5663 3.32081 20.7582 3.32204 20.95C3.32314 21.1509 3.32324 21.3518 3.32345 21.5527C3.32399 21.9327 3.32543 22.3126 3.3272 22.6926C3.32936 23.1678 3.33032 23.6431 3.33128 24.1183C3.33299 24.9656 3.33651 25.8129 3.33986 26.6602C5.15744 26.6602 6.97502 26.6602 8.84767 26.6602C8.85471 25.2912 8.85471 25.2912 8.85945 23.9223C8.86075 23.4328 8.8624 22.9432 8.86535 22.4537C8.86769 22.0662 8.8692 21.6787 8.86972 21.2911C8.87003 21.0859 8.87075 20.8808 8.87245 20.6756C8.87434 20.4465 8.87439 20.2174 8.87428 19.9883C8.87512 19.9203 8.87596 19.8524 8.87683 19.7823C8.87746 19.4184 8.87746 19.4184 8.73615 19.0901C8.51552 18.9002 8.32997 18.9171 8.05085 18.9173C8.00492 18.9171 7.95898 18.9169 7.91166 18.9167C7.75934 18.9161 7.60702 18.916 7.4547 18.9159C7.34902 18.9158 7.24334 18.9156 7.13766 18.9154C6.9159 18.915 6.69415 18.9149 6.47239 18.9149C6.18814 18.9149 5.90389 18.9141 5.61963 18.9131C5.40128 18.9125 5.18292 18.9124 4.96457 18.9124C4.85977 18.9123 4.75497 18.9121 4.65017 18.9116C4.50359 18.911 4.35702 18.9112 4.21044 18.9116C4.14541 18.9111 4.14541 18.9111 4.07907 18.9106C3.77434 18.9069 3.77433 18.9069 3.51564 19.043Z" fill="currentColor"/>
</g>
<defs>
<clipPath id="clip0_36_774">
<rect width="30" height="30" fill="white"/>
</clipPath>
</defs>
</svg>
