<svg width="14" height="14" viewBox="0 0 14 14" fill="none" xmlns="http://www.w3.org/2000/svg">
<g clip-path="url(#clip0_36_171)">
<path d="M5.38947 -0.00402802C5.41833 -0.00422368 5.44719 -0.00441933 5.47692 -0.00462091C5.50858 -0.00469443 5.54025 -0.00476796 5.57287 -0.00484371C5.60622 -0.00502339 5.63958 -0.00520307 5.67394 -0.0053882C5.78466 -0.00592843 5.89538 -0.00624699 6.0061 -0.00651932C6.04431 -0.00663004 6.08252 -0.00674261 6.12073 -0.00685702C6.30042 -0.00737808 6.48012 -0.00776705 6.65981 -0.00799484C6.86664 -0.00826139 7.07345 -0.00897927 7.28027 -0.0100867C7.44046 -0.0109147 7.60065 -0.0113166 7.76084 -0.0114068C7.85634 -0.0114708 7.95183 -0.0117115 8.04733 -0.0124038C8.15419 -0.013166 8.26104 -0.013044 8.36791 -0.0128546C8.39907 -0.0132049 8.43024 -0.0135551 8.46234 -0.013916C8.8322 -0.0115397 9.12215 0.111635 9.39106 0.363369C9.68484 0.668781 9.7726 1.01016 9.76512 1.42358C9.76487 1.44986 9.76462 1.47613 9.76437 1.50321C9.76373 1.56725 9.76284 1.63127 9.7617 1.69531C9.78421 1.69507 9.80671 1.69482 9.8299 1.69457C10.0435 1.69237 10.257 1.69071 10.4706 1.68964C10.5803 1.68907 10.6901 1.68831 10.7998 1.68706C10.906 1.68586 11.0122 1.68521 11.1184 1.68493C11.1587 1.68473 11.1989 1.68434 11.2391 1.68374C11.654 1.67784 12.0184 1.76057 12.3328 2.0465C12.6063 2.33859 12.7072 2.66772 12.6959 3.05961C12.6797 3.3481 12.5693 3.58092 12.3867 3.80078C12.3724 3.81847 12.3581 3.83617 12.3433 3.8544C12.1957 4.01937 11.993 4.1143 11.7851 4.18359C11.7851 4.20107 11.7851 4.21855 11.7851 4.23656C11.7841 5.27391 11.7826 6.31125 11.7803 7.34859C11.78 7.4733 11.7797 7.59801 11.7795 7.72272C11.7794 7.75996 11.7794 7.75996 11.7793 7.79795C11.7785 8.1993 11.778 8.60065 11.7777 9.002C11.7773 9.41419 11.7766 9.82638 11.7754 10.2386C11.7748 10.4927 11.7744 10.7468 11.7744 11.0009C11.7744 11.1754 11.774 11.3499 11.7733 11.5244C11.7729 11.625 11.7727 11.7255 11.7729 11.826C11.7744 12.495 11.731 13.0712 11.2355 13.5717C10.9162 13.8652 10.5387 14.0087 10.1094 14.0073C10.0818 14.0074 10.0542 14.0076 10.0258 14.0077C9.93363 14.008 9.84149 14.008 9.74935 14.0079C9.68313 14.0081 9.61691 14.0083 9.55069 14.0085C9.38968 14.0089 9.22866 14.0091 9.06765 14.0091C8.93665 14.0092 8.80565 14.0093 8.67465 14.0094C8.30262 14.0099 7.9306 14.0102 7.55857 14.0101C7.53854 14.0101 7.51851 14.0101 7.49787 14.0101C7.47781 14.0101 7.45776 14.0101 7.43709 14.0101C7.11237 14.0101 6.78765 14.0106 6.46293 14.0114C6.12891 14.0122 5.79488 14.0126 5.46086 14.0125C5.27357 14.0125 5.08629 14.0126 4.89901 14.0132C4.72273 14.0138 4.54646 14.0138 4.37019 14.0134C4.30571 14.0133 4.24123 14.0134 4.17675 14.0138C3.60533 14.0165 3.17497 13.9495 2.74312 13.5448C2.41151 13.2087 2.23149 12.783 2.22805 12.309C2.22853 12.2617 2.22853 12.2617 2.22902 12.2134C2.22892 12.1788 2.22883 12.1442 2.22873 12.1085C2.22849 12.0137 2.22892 11.9188 2.22947 11.824C2.22995 11.7213 2.22979 11.6185 2.2297 11.5158C2.22965 11.3382 2.22999 11.1606 2.23061 10.983C2.2315 10.7262 2.23178 10.4695 2.23192 10.2127C2.23216 9.79605 2.23288 9.37938 2.23392 8.96271C2.23492 8.55817 2.2357 8.15363 2.23616 7.74909C2.23619 7.72412 2.23622 7.69914 2.23625 7.67341C2.23639 7.54812 2.23653 7.42282 2.23667 7.29752C2.2378 6.25954 2.23972 5.22157 2.24217 4.18359C2.22525 4.17812 2.20833 4.17265 2.1909 4.16702C2.16872 4.15976 2.14654 4.1525 2.12369 4.14502C2.0907 4.13428 2.0907 4.13428 2.05704 4.12332C1.8839 4.06152 1.73355 3.93732 1.61326 3.80078C1.60012 3.78604 1.58697 3.77131 1.57342 3.75613C1.33053 3.46221 1.27848 3.13603 1.30594 2.76663C1.34344 2.42495 1.53605 2.15181 1.79399 1.93467C2.10461 1.70678 2.4135 1.6873 2.78563 1.68997C2.82761 1.69007 2.8696 1.69015 2.91159 1.6902C3.02145 1.69041 3.13131 1.69095 3.24118 1.69155C3.35354 1.69212 3.46591 1.69236 3.57827 1.69264C3.79827 1.69322 4.01827 1.69415 4.23826 1.69531C4.23803 1.67642 4.2378 1.65754 4.23756 1.63808C4.23663 1.55173 4.23605 1.46539 4.23549 1.37904C4.23511 1.34933 4.23474 1.31962 4.23436 1.28901C4.23257 0.927165 4.33296 0.66191 4.57835 0.391354C4.60147 0.370487 4.6246 0.34962 4.64842 0.328121C4.66146 0.314974 4.6745 0.301826 4.68794 0.28828C4.86923 0.115311 5.13851 -0.00285996 5.38947 -0.00402802ZM5.05858 0.874996C4.85288 1.13871 4.92186 1.32018 4.92186 1.69531C6.29342 1.69531 7.66498 1.69531 9.07811 1.69531C9.11097 1.21595 9.11097 1.21595 8.9055 0.854488C8.67388 0.660577 8.45901 0.652134 8.16574 0.652274C8.13788 0.652182 8.11002 0.65209 8.08132 0.651996C7.98958 0.651737 7.89783 0.651683 7.80609 0.651653C7.74203 0.651565 7.67798 0.651473 7.61392 0.651377C7.47976 0.651214 7.3456 0.651163 7.21143 0.651179C7.03997 0.651182 6.8685 0.650809 6.69703 0.650338C6.56475 0.650033 6.43247 0.649978 6.30019 0.649993C6.23699 0.649961 6.1738 0.64984 6.1106 0.649628C6.02201 0.649359 5.93343 0.64944 5.84483 0.649604C5.81902 0.64945 5.7932 0.649296 5.7666 0.649138C5.49194 0.650425 5.26091 0.677799 5.05858 0.874996ZM2.08323 2.6329C1.98378 2.77619 1.97552 2.91937 1.99608 3.08984C2.04519 3.25658 2.14974 3.38136 2.29686 3.47265C2.40899 3.51582 2.5023 3.53421 2.6222 3.53437C2.65399 3.53455 2.68579 3.53473 2.71855 3.53491C2.77057 3.53478 2.77057 3.53478 2.82363 3.53465C2.86105 3.53475 2.89846 3.53488 2.93587 3.53503C3.03853 3.53536 3.14119 3.53536 3.24385 3.53529C3.35462 3.53528 3.4654 3.53558 3.57617 3.53584C3.79315 3.53629 4.01012 3.53644 4.2271 3.53648C4.40348 3.5365 4.57986 3.53661 4.75624 3.53679C5.25639 3.53727 5.75653 3.53752 6.25668 3.53748C6.28364 3.53748 6.3106 3.53748 6.33837 3.53747C6.36536 3.53747 6.39235 3.53747 6.42016 3.53747C6.85762 3.53744 7.29506 3.53797 7.73252 3.53874C8.18176 3.53952 8.631 3.5399 9.08025 3.53985C9.33243 3.53984 9.58462 3.53999 9.83681 3.54058C10.0515 3.54107 10.2662 3.54119 10.4809 3.54082C10.5905 3.54064 10.7 3.54064 10.8095 3.54111C10.9098 3.54154 11.0102 3.54147 11.1105 3.54099C11.1638 3.54087 11.2171 3.54128 11.2704 3.54171C11.4843 3.54003 11.6728 3.52053 11.8363 3.37125C11.9722 3.22666 12.0179 3.07586 12.0123 2.87931C11.9881 2.69899 11.8909 2.58044 11.7545 2.46713C11.6411 2.39313 11.5419 2.37206 11.4075 2.37187C11.3756 2.37169 11.3436 2.37152 11.3107 2.37133C11.2757 2.37142 11.2408 2.3715 11.2047 2.37159C11.1671 2.37149 11.1294 2.37136 11.0918 2.37121C10.9884 2.37088 10.885 2.37089 10.7816 2.37095C10.6701 2.37096 10.5586 2.37066 10.447 2.3704C10.2286 2.36995 10.0101 2.3698 9.79158 2.36977C9.61399 2.36974 9.4364 2.36963 9.2588 2.36945C8.75533 2.36897 8.25186 2.36872 7.74839 2.36876C7.70767 2.36877 7.70767 2.36877 7.66613 2.36877C7.63895 2.36877 7.61178 2.36877 7.58377 2.36878C7.1433 2.3688 6.70282 2.36827 6.26234 2.3675C5.8101 2.36672 5.35787 2.36634 4.90562 2.36639C4.65171 2.36641 4.3978 2.36626 4.14388 2.36567C3.9277 2.36517 3.71151 2.36505 3.49533 2.36542C3.38504 2.3656 3.27476 2.3656 3.16447 2.36513C3.06345 2.3647 2.96244 2.36478 2.86142 2.36525C2.80768 2.36538 2.75394 2.36496 2.70021 2.36453C2.434 2.36661 2.25164 2.41599 2.08323 2.6329ZM2.89842 4.21093C2.89729 5.53061 2.89616 6.85029 2.895 8.20996C2.8945 8.62667 2.89401 9.04337 2.89349 9.47271C2.89331 9.84621 2.89331 9.84621 2.8932 10.2197C2.89315 10.3861 2.89295 10.5525 2.89265 10.7188C2.8923 10.9108 2.89214 11.1028 2.89222 11.2949C2.89225 11.393 2.8922 11.4912 2.8919 11.5893C2.89158 11.6947 2.89169 11.8 2.89184 11.9053C2.89168 11.9357 2.89152 11.966 2.89136 11.9972C2.89292 12.4084 2.95278 12.7605 3.24374 13.0649C3.50402 13.3063 3.7952 13.348 4.13943 13.3474C4.16473 13.3475 4.19003 13.3475 4.21609 13.3476C4.30057 13.3478 4.38505 13.3477 4.46954 13.3477C4.53023 13.3478 4.59092 13.3479 4.65161 13.348C4.8163 13.3482 4.98099 13.3483 5.14568 13.3483C5.24863 13.3483 5.35159 13.3484 5.45454 13.3485C5.79537 13.3487 6.1362 13.3488 6.47703 13.3488C6.49538 13.3488 6.51373 13.3488 6.53264 13.3488C6.5602 13.3488 6.5602 13.3488 6.58833 13.3488C6.88596 13.3488 7.1836 13.3491 7.48123 13.3494C7.78729 13.3498 8.09335 13.35 8.39941 13.35C8.57106 13.35 8.74271 13.3501 8.91436 13.3504C9.07586 13.3506 9.23736 13.3506 9.39887 13.3504C9.458 13.3504 9.51714 13.3505 9.57627 13.3506C10.2165 13.3621 10.2165 13.3621 10.7666 13.0669C11.0208 12.7916 11.0826 12.4928 11.0808 12.1322C11.0808 12.0983 11.0809 12.0645 11.0809 12.0295C11.081 11.9358 11.0808 11.8421 11.0805 11.7484C11.0803 11.6472 11.0804 11.546 11.0804 11.4448C11.0805 11.2696 11.0803 11.0944 11.08 10.9192C11.0795 10.6659 11.0794 10.4126 11.0793 10.1592C11.0792 9.74822 11.0788 9.3372 11.0783 8.92619C11.0778 8.52697 11.0774 8.12775 11.0772 7.72854C11.0772 7.70367 11.0772 7.6788 11.0772 7.65318C11.077 7.4587 11.0769 7.26422 11.0768 7.06975C11.0763 6.11681 11.0752 5.16387 11.0742 4.21093C8.37619 4.21093 5.67818 4.21093 2.89842 4.21093Z" fill="white"/>
<path d="M9.10544 5.08594C9.19405 5.15609 9.23384 5.19769 9.26951 5.30469C9.27226 5.38844 9.27343 5.47157 9.27335 5.55532C9.27343 5.58129 9.27351 5.60726 9.27359 5.63402C9.27383 5.72143 9.27387 5.80884 9.27391 5.89624C9.27404 5.95876 9.27418 6.02127 9.27432 6.08379C9.27468 6.2539 9.27486 6.424 9.27498 6.59411C9.27506 6.70033 9.27517 6.80654 9.27529 6.91276C9.27562 7.20684 9.27591 7.50091 9.276 7.79499C9.27601 7.81381 9.27601 7.83263 9.27602 7.85202C9.27603 7.87089 9.27603 7.88976 9.27604 7.9092C9.27605 7.94743 9.27606 7.98566 9.27607 8.02389C9.27608 8.04285 9.27609 8.06182 9.27609 8.08136C9.2762 8.38864 9.27668 8.69592 9.27731 9.00321C9.27796 9.31869 9.2783 9.63417 9.27834 9.94965C9.27836 10.1268 9.27853 10.3039 9.27901 10.481C9.27946 10.6476 9.27952 10.8142 9.27928 10.9808C9.27926 11.042 9.27938 11.1032 9.27965 11.1644C9.28 11.2478 9.27984 11.3313 9.27955 11.4147C9.27977 11.439 9.27999 11.4632 9.28022 11.4882C9.27894 11.6486 9.25623 11.7711 9.13791 11.8894C9.03218 11.9468 8.9478 11.9561 8.8303 11.9321C8.73514 11.8876 8.68036 11.8383 8.61326 11.7578C8.58866 11.6831 8.58246 11.6151 8.58232 11.5368C8.58221 11.5147 8.58211 11.4926 8.582 11.4698C8.58202 11.4456 8.58205 11.4215 8.58207 11.3966C8.58199 11.3708 8.58191 11.3451 8.58183 11.3185C8.58159 11.2319 8.58155 11.1454 8.58151 11.0588C8.58138 10.9968 8.58124 10.9348 8.58109 10.8729C8.58074 10.7043 8.58056 10.5358 8.58044 10.3673C8.58036 10.262 8.58025 10.1568 8.58012 10.0516C8.57979 9.76014 8.57951 9.46871 8.57942 9.17728C8.57941 9.15864 8.5794 9.14 8.5794 9.12079C8.57939 9.1021 8.57939 9.08341 8.57938 9.06415C8.57937 9.02628 8.57935 8.98841 8.57934 8.95054C8.57934 8.93175 8.57933 8.91297 8.57932 8.89362C8.57922 8.58916 8.57874 8.28471 8.5781 7.98026C8.57745 7.66762 8.57712 7.35498 8.57708 7.04234C8.57705 6.86683 8.57689 6.69132 8.5764 6.51581C8.57595 6.35076 8.57589 6.18571 8.57613 6.02066C8.57615 5.96006 8.57603 5.89946 8.57576 5.83885C8.57542 5.75617 8.57558 5.6735 8.57586 5.59082C8.57553 5.55478 8.57553 5.55478 8.5752 5.51802C8.57631 5.38082 8.59227 5.28708 8.66794 5.16797C8.80198 5.0465 8.93611 5.04197 9.10544 5.08594Z" fill="white"/>
<path d="M5.22259 5.08594C5.33844 5.17221 5.37818 5.24918 5.414 5.38672C5.42161 5.47182 5.4215 5.55645 5.42113 5.64184C5.42123 5.66731 5.42134 5.69277 5.42144 5.71901C5.42172 5.80421 5.42162 5.8894 5.42151 5.97461C5.42163 6.03574 5.42177 6.09688 5.42193 6.15801C5.4223 6.32399 5.42231 6.48997 5.42224 6.65595C5.42221 6.79451 5.42235 6.93307 5.42248 7.07163C5.4228 7.41717 5.42278 7.76272 5.4226 8.10826C5.42246 8.40818 5.42277 8.70811 5.42329 9.00803C5.42382 9.31619 5.42403 9.62435 5.42394 9.93251C5.42389 10.1054 5.42396 10.2784 5.42434 10.4513C5.42469 10.6139 5.42463 10.7765 5.42428 10.9391C5.42421 10.9988 5.42429 11.0584 5.42451 11.1181C5.4248 11.1996 5.42458 11.281 5.42423 11.3625C5.42443 11.3861 5.42463 11.4097 5.42484 11.434C5.42326 11.6103 5.39623 11.7465 5.26873 11.8774C5.18323 11.9291 5.13126 11.9472 5.03119 11.9492C4.8888 11.905 4.80825 11.8578 4.7304 11.7305C4.71461 11.6436 4.71576 11.5581 4.7167 11.47C4.71655 11.4436 4.7164 11.4172 4.71624 11.39C4.71587 11.3016 4.71628 11.2132 4.71669 11.1247C4.71658 11.0614 4.71643 10.998 4.71624 10.9346C4.71586 10.7624 4.71616 10.5902 4.71661 10.418C4.71699 10.238 4.71681 10.0579 4.71672 9.87783C4.71662 9.57542 4.71701 9.27301 4.71765 8.97059C4.7183 8.65947 4.71849 8.34835 4.71821 8.03722C4.71786 7.66227 4.71793 7.28731 4.71836 6.91236C4.71852 6.76914 4.71852 6.62593 4.71839 6.48272C4.71826 6.31412 4.71853 6.14553 4.71912 5.97693C4.71928 5.91499 4.71929 5.85305 4.71915 5.79112C4.71899 5.70669 4.71933 5.62228 4.7198 5.53785C4.71964 5.51324 4.71947 5.48862 4.71931 5.46325C4.72063 5.33336 4.72728 5.24562 4.81244 5.14063C4.94601 5.04521 5.06889 5.03972 5.22259 5.08594Z" fill="white"/>
<path d="M7.16417 5.08594C7.23815 5.14604 7.28579 5.19246 7.32823 5.27734C7.33116 5.36103 7.33239 5.4441 7.33244 5.5278C7.33256 5.55408 7.33268 5.58037 7.3328 5.60744C7.33317 5.69607 7.33334 5.7847 7.33351 5.87332C7.33372 5.93664 7.33395 5.99996 7.33418 6.06328C7.3349 6.2717 7.33532 6.48012 7.33571 6.68854C7.33585 6.76019 7.336 6.83185 7.33615 6.9035C7.33674 7.2015 7.33726 7.49949 7.33756 7.79748C7.33764 7.87483 7.33772 7.95218 7.3378 8.02953C7.33782 8.04875 7.33785 8.06798 7.33787 8.08779C7.33821 8.39923 7.33912 8.71067 7.34026 9.02211C7.34142 9.34179 7.34205 9.66147 7.34221 9.98115C7.34231 10.1607 7.34264 10.3402 7.34352 10.5197C7.34434 10.6886 7.34452 10.8574 7.3442 11.0263C7.34419 11.0883 7.34442 11.1503 7.3449 11.2123C7.34552 11.2969 7.34529 11.3815 7.34486 11.4661C7.34524 11.4907 7.34562 11.5153 7.34601 11.5406C7.34452 11.6579 7.3374 11.7341 7.26224 11.8271C7.16914 11.9159 7.10056 11.9458 6.97276 11.9492C6.83023 11.9088 6.75134 11.8556 6.67198 11.7305C6.64876 11.6558 6.6412 11.5887 6.64112 11.5107C6.64103 11.4889 6.64094 11.4671 6.64085 11.4446C6.6409 11.4207 6.64094 11.3969 6.64098 11.3724C6.64092 11.3469 6.64086 11.3215 6.64079 11.2953C6.64062 11.2098 6.64064 11.1244 6.64067 11.039C6.64058 10.9778 6.64049 10.9166 6.64039 10.8555C6.64015 10.6891 6.64008 10.5228 6.64006 10.3565C6.64004 10.2177 6.63994 10.079 6.63984 9.94022C6.63963 9.6316 6.63955 9.32298 6.63957 9.01435C6.63957 8.99584 6.63957 8.97732 6.63957 8.95824C6.63957 8.9397 6.63957 8.92116 6.63957 8.90206C6.63959 8.60158 6.63932 8.30111 6.63894 8.00064C6.63855 7.69208 6.63836 7.38352 6.63838 7.07496C6.63839 6.90174 6.63831 6.72852 6.63802 6.5553C6.63776 6.39241 6.63775 6.22951 6.63795 6.06662C6.63798 6.00681 6.63792 5.947 6.63775 5.88719C6.63754 5.80559 6.63767 5.72399 6.63788 5.64239C6.63774 5.61869 6.6376 5.59498 6.63745 5.57056C6.63841 5.40355 6.65266 5.2765 6.76598 5.14575C6.89103 5.039 7.01114 5.04593 7.16417 5.08594Z" fill="white"/>
</g>
<defs>
<clipPath id="clip0_36_171">
<rect width="14" height="14" fill="white"/>
</clipPath>
</defs>
</svg>
