<svg width="30" height="30" viewBox="0 0 30 30" fill="currentColor"  xmlns="http://www.w3.org/2000/svg">
<g clip-path="url(#clip0_36_332)">
<path d="M10.4789 -0.0236626C10.5911 -0.023997 10.7032 -0.0244052 10.8154 -0.0248812C11.1191 -0.02593 11.4227 -0.0258638 11.7263 -0.0255291C11.9802 -0.0253476 12.2342 -0.0257052 12.4881 -0.0260587C13.0874 -0.026881 13.6867 -0.0267908 14.2861 -0.0261231C14.9033 -0.0254505 15.5205 -0.0262749 16.1378 -0.0278455C16.6687 -0.0291456 17.1996 -0.0295323 17.7305 -0.0291887C18.0472 -0.0289916 18.3639 -0.0291304 18.6805 -0.0301409C18.9784 -0.0310501 19.2763 -0.0308124 19.5742 -0.0297129C19.6831 -0.0294976 19.7921 -0.0296768 19.9011 -0.0302921C20.7692 -0.0348183 21.4841 0.074032 22.1448 0.692151C22.6865 1.2712 22.8694 1.93486 22.8686 2.7099C22.869 2.76818 22.8694 2.82646 22.8698 2.88651C22.8709 3.07814 22.8711 3.26976 22.8713 3.46139C22.8716 3.59552 22.872 3.72965 22.8725 3.86378C22.8732 4.14467 22.8734 4.42555 22.8733 4.70644C22.8733 5.06473 22.8749 5.423 22.8769 5.78128C22.8782 6.05832 22.8785 6.33535 22.8784 6.61239C22.8785 6.74439 22.879 6.87639 22.88 7.00839C22.8864 8.03771 22.8441 8.88697 22.0928 9.66981C21.393 10.3188 20.5884 10.3782 19.6745 10.3814C19.523 10.3828 19.3715 10.3842 19.22 10.3856C18.9827 10.3878 18.7453 10.3895 18.508 10.3902C18.2779 10.3909 18.0479 10.3935 17.8178 10.3961C17.747 10.3959 17.6763 10.3958 17.6034 10.3957C17.5369 10.3967 17.4704 10.3976 17.4019 10.3986C17.3148 10.3992 17.3148 10.3992 17.226 10.3997C16.9443 10.4479 16.7332 10.5506 16.5532 10.7712C16.471 10.8942 16.3956 11.0191 16.322 11.1475C16.296 11.1911 16.2699 11.2348 16.243 11.2798C16.1793 11.3865 16.1169 11.494 16.0547 11.6016C16.1136 11.6017 16.1136 11.6017 16.1737 11.6018C17.1314 11.604 18.089 11.6075 19.0466 11.6124C19.5097 11.6147 19.9729 11.6166 20.436 11.6175C20.8399 11.6182 21.2438 11.6198 21.6476 11.6224C21.8613 11.6237 22.0749 11.6246 22.2886 11.6245C22.5277 11.6245 22.7668 11.6263 23.0059 11.6282C23.0759 11.6279 23.1459 11.6276 23.2181 11.6273C23.9492 11.6363 24.6114 11.8822 25.161 12.3722C25.5964 12.8215 25.9633 13.4312 25.9649 14.0739C25.9652 14.1227 25.9654 14.1716 25.9657 14.2219C25.9657 14.302 25.9657 14.302 25.9657 14.3836C25.9659 14.4406 25.9661 14.4975 25.9663 14.5561C25.967 14.7474 25.9672 14.9387 25.9674 15.13C25.9678 15.267 25.9682 15.4039 25.9686 15.5409C25.9698 15.9912 25.9704 16.4414 25.971 16.8917C25.9713 17.0468 25.9715 17.2018 25.9717 17.3568C25.9727 18.0018 25.9736 18.6467 25.974 19.2916C25.9741 19.4589 25.9742 19.6262 25.9744 19.7935C25.9744 19.8351 25.9744 19.8767 25.9744 19.9195C25.9749 20.5926 25.9764 21.2656 25.9783 21.9386C25.9803 22.6302 25.9813 23.3218 25.9815 24.0134C25.9816 24.4015 25.9822 24.7895 25.9836 25.1776C25.985 25.5429 25.9852 25.9081 25.9846 26.2734C25.9846 26.4072 25.985 26.541 25.9858 26.6748C25.9931 27.9689 25.9931 27.9689 25.7227 28.4766C25.6916 28.5384 25.6606 28.6003 25.6286 28.664C25.2049 29.3305 24.6792 29.7433 23.9144 29.9744C23.7693 30.0041 23.6357 30.0076 23.4875 30.0079C23.4262 30.0081 23.3649 30.0084 23.3018 30.0087C23.2345 30.0087 23.1672 30.0086 23.0979 30.0086C23.0264 30.0089 22.9549 30.0091 22.8812 30.0093C22.6825 30.0098 22.4839 30.0101 22.2852 30.0102C22.071 30.0105 21.8568 30.011 21.6426 30.0115C21.1252 30.0127 20.6078 30.0133 20.0903 30.0138C19.8466 30.0141 19.6028 30.0144 19.3591 30.0147C18.5486 30.0157 17.738 30.0165 16.9275 30.017C16.7172 30.0171 16.5069 30.0172 16.2966 30.0173C16.2182 30.0173 16.2182 30.0173 16.1382 30.0174C15.2919 30.0179 14.4455 30.0194 13.5991 30.0213C12.7298 30.0232 11.8605 30.0243 10.9912 30.0244C10.5032 30.0246 10.0153 30.0251 9.52734 30.0266C9.11172 30.0279 8.6961 30.0283 8.28047 30.0278C8.06856 30.0275 7.85666 30.0276 7.64476 30.0287C7.41457 30.03 7.18441 30.0294 6.95423 30.0286C6.85469 30.0296 6.85469 30.0296 6.75314 30.0305C5.99897 30.0245 5.35351 29.7371 4.78961 29.2385C4.36122 28.7947 4.03762 28.1801 4.03437 27.5545C4.03395 27.4989 4.03353 27.4432 4.0331 27.386C4.03294 27.3253 4.03279 27.2647 4.03262 27.2023C4.03224 27.1381 4.03185 27.074 4.03146 27.0079C4.0303 26.7956 4.02962 26.5834 4.02903 26.3711C4.02879 26.2986 4.02856 26.2262 4.02831 26.1515C4.02721 25.8077 4.02636 25.4639 4.02587 25.1201C4.0253 24.7236 4.02376 24.3271 4.02139 23.9306C4.01941 23.5869 4.01871 23.2431 4.01848 22.8993C4.01819 22.7532 4.01751 22.6071 4.01642 22.461C4.015 22.2567 4.01505 22.0525 4.01546 21.8483C4.01471 21.7878 4.01396 21.7273 4.01318 21.665C4.01508 21.4047 4.01662 21.2541 4.15458 21.0283C4.34676 20.8556 4.48498 20.8389 4.74406 20.8431C4.93779 20.8695 5.0281 20.9505 5.15628 21.0938C5.28994 21.4002 5.29345 21.6896 5.29773 22.018C5.29886 22.0721 5.3 22.1262 5.30116 22.182C5.30465 22.3539 5.30738 22.5258 5.31009 22.6978C5.31232 22.8147 5.31461 22.9317 5.31695 23.0486C5.32256 23.3345 5.32749 23.6204 5.33206 23.9063C5.38046 23.8566 5.42887 23.807 5.47874 23.7559C5.6605 23.5698 5.84306 23.3846 6.02586 23.1996C6.10448 23.1198 6.1829 23.0398 6.26109 22.9595C6.91627 22.2877 7.55757 21.6673 8.55105 21.6522C8.59697 21.6528 8.6429 21.6534 8.69021 21.6541C8.73878 21.6546 8.78734 21.6551 8.83738 21.6557C9.79374 21.6825 10.3988 22.157 11.0376 22.8259C11.0718 22.8637 11.106 22.9015 11.1412 22.9404C11.1739 22.9752 11.2067 23.01 11.2404 23.0459C11.2835 23.0934 11.2835 23.0934 11.3275 23.1419C11.4261 23.217 11.4261 23.217 11.5634 23.191C11.7473 23.136 11.8247 23.0671 11.9592 22.9312C12.028 22.8624 12.028 22.8624 12.0983 22.7923C12.1478 22.7416 12.1973 22.691 12.2483 22.6388C12.3012 22.5857 12.354 22.5327 12.4084 22.478C12.5232 22.3626 12.6377 22.2469 12.7519 22.1309C12.9328 21.947 13.1147 21.764 13.2966 21.5811C13.6504 21.2253 14.0033 20.8687 14.3562 20.5119C14.8041 20.059 15.2524 19.6064 15.7016 19.1547C15.8819 18.9733 16.0618 18.7915 16.2413 18.6092C16.3266 18.5229 16.412 18.4367 16.4975 18.3507C16.6011 18.2463 16.7045 18.1417 16.8074 18.0366C17.5357 17.3068 18.2281 16.9168 19.2566 16.915C19.6502 16.9211 19.984 16.9737 20.3321 17.168C20.3648 17.1861 20.3975 17.2041 20.4313 17.2227C20.9368 17.5299 21.3311 17.9694 21.744 18.387C21.8286 18.4719 21.9133 18.5568 21.9979 18.6417C22.2194 18.8638 22.4403 19.0864 22.6611 19.3092C22.8871 19.5369 23.1135 19.7642 23.3399 19.9915C23.7831 20.4365 24.2257 20.8822 24.668 21.3281C24.6735 20.3813 24.6776 19.4344 24.6801 18.4875C24.6813 18.0479 24.683 17.6082 24.6857 17.1685C24.688 16.7852 24.6895 16.4018 24.69 16.0185C24.6903 15.8156 24.6911 15.6128 24.6928 15.4099C24.6947 15.1831 24.6947 14.9563 24.6946 14.7295C24.6959 14.6293 24.6959 14.6293 24.6972 14.527C24.6947 14.0497 24.6076 13.7366 24.2945 13.374C23.7465 12.9044 23.2143 12.8728 22.5138 12.8758C22.4467 12.8756 22.3796 12.8754 22.3105 12.8752C22.087 12.8747 21.8634 12.8751 21.6399 12.8755C21.4791 12.8754 21.3183 12.8751 21.1576 12.8749C20.767 12.8743 20.3764 12.8744 19.9858 12.8748C19.6682 12.875 19.3506 12.8751 19.033 12.875C18.9877 12.8749 18.9424 12.8749 18.8958 12.8749C18.8038 12.8749 18.7118 12.8748 18.6198 12.8748C17.758 12.8745 16.8962 12.8748 16.0344 12.8755C15.2958 12.876 14.5571 12.8759 13.8184 12.8754C12.9596 12.8747 12.1008 12.8745 11.242 12.8748C11.1504 12.8749 11.0587 12.8749 10.967 12.875C10.9219 12.875 10.8769 12.875 10.8304 12.875C10.5134 12.8751 10.1963 12.8749 9.87931 12.8747C9.49271 12.8743 9.1061 12.8744 8.7195 12.8751C8.52243 12.8754 8.32537 12.8754 8.1283 12.8751C7.91429 12.8748 7.70028 12.8752 7.48626 12.8758C7.42454 12.8755 7.36281 12.8752 7.29921 12.875C6.68887 12.8782 6.15118 12.9379 5.68362 13.3594C5.3883 13.7322 5.3238 14.0488 5.3197 14.5194C5.31805 14.6237 5.31637 14.7281 5.31466 14.8325C5.31225 14.9967 5.31009 15.1608 5.30854 15.325C5.30692 15.4837 5.30423 15.6424 5.30139 15.8011C5.3012 15.8497 5.30101 15.8983 5.30081 15.9484C5.2934 16.3022 5.23906 16.5955 4.99881 16.8713C4.79817 16.9635 4.60866 16.9731 4.39456 16.9336C4.22991 16.8285 4.13034 16.7567 4.043 16.582C4.03657 16.4969 4.03368 16.4115 4.03262 16.3262C4.0315 16.2466 4.0315 16.2466 4.03035 16.1654C4.02991 16.1078 4.02948 16.0502 4.02903 15.9908C4.02856 15.9314 4.02809 15.872 4.0276 15.8107C4.02679 15.6845 4.02616 15.5583 4.0257 15.432C4.0247 15.2406 4.02213 15.0493 4.01954 14.858C4.01894 14.7351 4.01844 14.6122 4.01805 14.4894C4.01702 14.4328 4.016 14.3763 4.01494 14.318C4.01711 13.6253 4.29462 12.9726 4.75505 12.4562C5.24168 11.9846 5.8581 11.6525 6.5439 11.6531C6.61176 11.653 6.67963 11.653 6.74955 11.6529C6.82377 11.6531 6.89799 11.6533 6.97446 11.6535C7.05358 11.6535 7.1327 11.6535 7.21182 11.6535C7.42644 11.6535 7.64106 11.6538 7.85568 11.6542C8.08004 11.6546 8.3044 11.6546 8.52875 11.6547C8.95353 11.6549 9.37831 11.6554 9.80308 11.6559C10.2867 11.6566 10.7703 11.6569 11.254 11.6572C12.2487 11.6578 13.2435 11.6589 14.2383 11.6602C14.1394 11.4983 14.0389 11.3375 13.938 11.1768C13.9102 11.1312 13.8824 11.0857 13.8538 11.0388C13.6829 10.7686 13.5366 10.5756 13.2422 10.4297C13.0753 10.3951 13.0753 10.3951 12.9015 10.3996C12.8358 10.3988 12.77 10.398 12.7023 10.3972C12.632 10.3975 12.5616 10.3978 12.4892 10.3981C12.4159 10.3974 12.3427 10.3967 12.2672 10.396C12.0727 10.3943 11.8782 10.3935 11.6837 10.3933C11.4113 10.3928 11.1389 10.3911 10.8665 10.3889C10.7219 10.3877 10.5772 10.3872 10.4326 10.3873C9.54164 10.3819 8.74159 10.2397 8.07109 9.60824C7.53622 9.00158 7.37438 8.30651 7.3734 7.51932C7.37296 7.43522 7.37296 7.43522 7.37252 7.34941C7.37166 7.16447 7.37126 6.97954 7.37094 6.7946C7.3706 6.66542 7.37026 6.53623 7.36993 6.40705C7.36931 6.13625 7.36897 5.86546 7.36876 5.59466C7.36844 5.2491 7.36704 4.90356 7.36537 4.55801C7.36427 4.29108 7.36397 4.02416 7.36388 3.75722C7.3637 3.62992 7.36324 3.50261 7.36246 3.3753C7.35682 2.37584 7.38896 1.46511 8.09443 0.685285C8.81318 0.028577 9.55691 -0.0261434 10.4789 -0.0236626ZM8.80648 1.81207C8.59603 2.14867 8.59611 2.51408 8.59721 2.89831C8.59691 2.95239 8.59662 3.00647 8.59631 3.06218C8.5955 3.24004 8.59555 3.41789 8.59568 3.59575C8.59546 3.72001 8.5952 3.84427 8.59492 3.96854C8.59449 4.22869 8.5945 4.48884 8.59481 4.749C8.59515 5.0815 8.59416 5.41398 8.5928 5.74648C8.59193 6.00304 8.59188 6.25961 8.59207 6.51618C8.59204 6.63872 8.59173 6.76127 8.59114 6.88382C8.59041 7.05557 8.59082 7.22729 8.59149 7.39905C8.59104 7.4491 8.5906 7.49916 8.59014 7.55074C8.59414 8.01291 8.68721 8.45282 9.02346 8.78907C9.51905 9.17453 9.99109 9.15655 10.5952 9.1546C10.6744 9.15495 10.7536 9.1554 10.8327 9.15593C11.1669 9.15809 11.5012 9.1592 11.8354 9.15853C12.0406 9.15819 12.2459 9.15928 12.4511 9.16122C12.5657 9.1619 12.6804 9.16103 12.795 9.16011C13.4759 9.16748 14.0302 9.34996 14.529 9.82431C14.705 10.0256 14.8418 10.2446 14.976 10.4752C15.0473 10.6124 15.0473 10.6124 15.1758 10.6641C15.2078 10.6096 15.2397 10.5552 15.2726 10.4991C15.6794 9.82432 16.0889 9.40402 16.875 9.19923C17.1509 9.16849 17.4239 9.16789 17.7013 9.16971C17.8192 9.16886 17.9371 9.16802 18.0551 9.16712C18.2185 9.16613 18.382 9.16616 18.5454 9.16622C18.832 9.16634 19.1185 9.16592 19.405 9.16388C19.557 9.16291 19.7091 9.16273 19.8611 9.16348C20.4015 9.16034 20.8881 9.11233 21.2923 8.72192C21.6025 8.36528 21.6557 7.95335 21.6524 7.49751C21.6529 7.44122 21.6534 7.38494 21.6539 7.32695C21.6552 7.14239 21.6548 6.95788 21.6543 6.77331C21.6546 6.6441 21.655 6.51489 21.6554 6.38568C21.656 6.11543 21.6558 5.8452 21.6549 5.57496C21.6539 5.22971 21.6553 4.88452 21.6573 4.53928C21.6586 4.2726 21.6585 4.00594 21.658 3.73926C21.658 3.61202 21.6584 3.48478 21.6593 3.35754C21.6603 3.17919 21.6594 3.00094 21.6581 2.8226C21.6588 2.77074 21.6595 2.71889 21.6602 2.66546C21.6537 2.23335 21.5243 1.83892 21.215 1.52624C20.6882 1.07799 19.9729 1.15502 19.3222 1.15672C19.2201 1.15656 19.1181 1.15636 19.016 1.1561C18.74 1.15557 18.464 1.15577 18.188 1.15615C17.8985 1.15644 17.6091 1.15617 17.3197 1.15598C16.8338 1.15577 16.3479 1.15605 15.862 1.15661C15.3009 1.15725 14.7397 1.15704 14.1786 1.1564C13.6961 1.15586 13.2135 1.15579 12.731 1.1561C12.4431 1.15628 12.1552 1.1563 11.8673 1.15592C11.5967 1.15558 11.3261 1.15581 11.0555 1.15649C10.9564 1.15664 10.8573 1.1566 10.7582 1.15634C10.6225 1.15602 10.4868 1.15642 10.3511 1.15701C10.2753 1.15705 10.1996 1.15709 10.1215 1.15714C9.55701 1.19513 9.18289 1.39418 8.80648 1.81207ZM17.7424 18.8908C17.6861 18.9472 17.6297 19.0035 17.5732 19.0598C17.4215 19.2114 17.271 19.3642 17.1208 19.5173C16.9629 19.6778 16.8038 19.8372 16.6448 19.9966C16.3443 20.2984 16.0449 20.6011 15.7459 20.9043C15.4059 21.2489 15.0647 21.5923 14.7235 21.9356C14.0502 22.613 13.3782 23.2917 12.7072 23.9714C12.6124 24.0672 12.5173 24.1626 12.4219 24.2578C12.4621 24.2977 12.5023 24.3376 12.5438 24.3787C12.6931 24.527 12.8422 24.6754 12.9912 24.8239C13.0558 24.8882 13.1203 24.9523 13.1849 25.0164C13.2779 25.1087 13.3706 25.2011 13.4633 25.2935C13.4922 25.3221 13.5211 25.3507 13.5508 25.3801C13.7737 25.603 13.9042 25.7499 13.9124 26.0706C13.9071 26.2834 13.902 26.3472 13.7696 26.521C13.5287 26.6314 13.3895 26.631 13.125 26.6016C12.9859 26.5137 12.9859 26.5137 12.8907 26.4258C12.852 26.4258 12.8133 26.4258 12.7735 26.4258C12.7735 26.3871 12.7735 26.3484 12.7735 26.3086C12.7348 26.3086 12.6961 26.3086 12.6563 26.3086C12.6563 26.2699 12.6563 26.2313 12.6563 26.1914C12.6176 26.1914 12.5789 26.1914 12.5391 26.1914C12.5391 26.1527 12.5391 26.1141 12.5391 26.0742C12.5004 26.0742 12.4617 26.0742 12.4219 26.0742C12.4026 26.0162 12.3832 25.9582 12.3633 25.8984C12.3246 25.8984 12.286 25.8984 12.2461 25.8984C12.2461 25.8598 12.2461 25.8211 12.2461 25.7813C12.2074 25.7813 12.1688 25.7813 12.1289 25.7813C12.1289 25.7426 12.1289 25.7039 12.1289 25.6641C12.0903 25.6641 12.0516 25.6641 12.0117 25.6641C11.9966 25.63 11.9815 25.5958 11.966 25.5607C11.8885 25.4186 11.8036 25.3235 11.6897 25.2087C11.6478 25.1663 11.6059 25.1238 11.5628 25.0801C11.5174 25.0348 11.4721 24.9895 11.4253 24.9429C11.3551 24.8722 11.3551 24.8722 11.2834 24.8002C11.1842 24.7006 11.0848 24.6011 10.9852 24.5019C10.8338 24.3507 10.6832 24.1987 10.5327 24.0467C10.436 23.9499 10.3393 23.8531 10.2425 23.7563C10.1979 23.7112 10.1532 23.666 10.1072 23.6195C9.69236 23.2081 9.32114 22.9053 8.71951 22.8919C8.65584 22.8897 8.59216 22.8875 8.52656 22.8852C7.72303 22.9824 7.08945 23.7923 6.53323 24.3274C6.50329 24.3561 6.47336 24.3848 6.44252 24.4144C5.4561 25.3295 5.4561 25.3295 5.08178 26.5721C5.11121 27.2405 5.26133 27.9237 5.74221 28.418C6.25895 28.8314 6.84842 28.8457 7.48626 28.843C7.55335 28.8432 7.62043 28.8434 7.68955 28.8436C7.91309 28.844 8.13662 28.8437 8.36016 28.8433C8.52094 28.8434 8.68171 28.8437 8.84248 28.8439C9.23308 28.8444 9.62368 28.8443 10.0143 28.844C10.3319 28.8437 10.6495 28.8437 10.967 28.8438C11.0123 28.8438 11.0576 28.8439 11.1043 28.8439C11.1963 28.8439 11.2883 28.8439 11.3803 28.844C12.2421 28.8443 13.1039 28.8439 13.9656 28.8433C14.7043 28.8428 15.443 28.8429 16.1816 28.8434C17.0404 28.844 17.8992 28.8443 18.758 28.8439C18.8497 28.8439 18.9414 28.8439 19.033 28.8438C19.0781 28.8438 19.1232 28.8438 19.1697 28.8438C19.4867 28.8437 19.8037 28.8438 20.1207 28.8441C20.5073 28.8444 20.8939 28.8443 21.2806 28.8437C21.4776 28.8434 21.6747 28.8434 21.8717 28.8437C22.0858 28.844 22.2998 28.8436 22.5138 28.843C22.6064 28.8434 22.6064 28.8434 22.7008 28.8438C23.3109 28.8406 23.8499 28.7814 24.3164 28.3594C24.9113 27.627 24.955 26.5959 25.0269 25.686C25.0327 25.6121 25.0327 25.6121 25.0387 25.5366C25.1323 24.1881 24.8719 23.1727 23.9881 22.1321C23.481 21.5606 22.9401 21.0264 22.3828 20.5042C22.327 20.4517 22.2712 20.3993 22.2138 20.3453C21.6444 19.8128 21.0648 19.2923 20.4694 18.7891C20.4267 18.7527 20.384 18.7162 20.34 18.6787C19.3929 17.8915 18.5941 18.0145 17.7424 18.8908Z" fill="currentColor"/>
<path d="M12.8943 2.82346C13.1189 2.92462 13.2351 2.94056 13.4693 2.86008C13.55 2.82507 13.6306 2.78969 13.711 2.75388C14.2192 2.60092 14.7093 2.69359 15.1758 2.92966C15.564 3.18452 15.8321 3.53532 15.9732 3.97954C16.0671 4.47963 16.015 4.94824 15.7617 5.3906C15.6391 5.56226 15.5001 5.70977 15.3516 5.85935C15.301 5.91146 15.2504 5.96358 15.1982 6.01728C14.9286 6.29272 14.6522 6.55677 14.3585 6.80669C14.1549 6.98855 13.9661 7.18519 13.7755 7.3805C13.6057 7.54529 13.546 7.55685 13.3045 7.59519C12.6929 7.5816 12.1675 6.84574 11.7676 6.43647C11.5408 6.20459 11.3082 5.98634 11.06 5.77745C10.7054 5.45397 10.5398 5.06233 10.4906 4.58608C10.4808 4.01442 10.6692 3.59851 11.0413 3.17868C11.5684 2.71585 12.2375 2.51489 12.8943 2.82346ZM11.9275 4.03928C11.761 4.23826 11.7379 4.31845 11.7364 4.56662C11.7985 4.74974 11.9323 4.85179 12.0703 4.98044C12.1613 5.07089 12.252 5.16163 12.3425 5.25258C12.4164 5.32651 12.4164 5.32651 12.4918 5.40193C12.7224 5.63253 12.953 5.86312 13.1836 6.09372C13.3581 6.01027 13.4754 5.93089 13.6084 5.78977C13.7543 5.63918 13.9034 5.49789 14.0625 5.3613C14.1407 5.29302 14.2188 5.22466 14.2969 5.15622C14.3557 5.10547 14.3557 5.10547 14.4157 5.05368C14.6025 4.88254 14.6964 4.78032 14.773 4.53366C14.7647 4.31024 14.7318 4.21419 14.5899 4.04294C14.4434 3.93185 14.3684 3.92548 14.1834 3.92942C13.9594 3.99799 13.8711 4.10913 13.711 4.27732C13.513 4.40643 13.3947 4.45181 13.158 4.46042C12.9423 4.39231 12.8911 4.34921 12.7442 4.18943C12.5984 4.0316 12.5413 3.98513 12.3304 3.91111C12.1198 3.91202 12.1198 3.91202 11.9275 4.03928Z" fill="currentColor"/>
<path d="M12.3266 15.2929C12.3773 15.3316 12.4281 15.3703 12.4804 15.4101C12.5287 15.4428 12.577 15.4754 12.6268 15.509C12.8383 15.7046 12.9807 15.9238 13.1249 16.1718C13.1494 16.2132 13.174 16.2546 13.1993 16.2973C13.4611 16.8265 13.4486 17.5194 13.3055 18.0828C13.2372 18.2567 13.1608 18.4132 13.0663 18.5742C13.0408 18.6178 13.0154 18.6615 12.9892 18.7065C12.65 19.2148 12.0778 19.5644 11.4843 19.6875C10.7963 19.7655 10.1745 19.6962 9.59462 19.292C9.07921 18.8716 8.77192 18.3984 8.61317 17.7539C8.54214 16.9006 8.70049 16.3123 9.22978 15.65C10.0219 14.769 11.3528 14.7159 12.3266 15.2929ZM10.056 16.6113C9.85011 16.9281 9.79367 17.2039 9.84364 17.5781C9.96629 17.9676 10.1909 18.1971 10.5383 18.4048C10.811 18.5181 11.1496 18.5072 11.4293 18.4188C11.7449 18.2547 12.0162 17.9746 12.1288 17.6367C12.1588 17.2694 12.1691 16.9536 11.953 16.6406C11.7259 16.3767 11.5114 16.2002 11.1593 16.151C10.6736 16.1262 10.387 16.2629 10.056 16.6113Z" fill="currentColor"/>
<path d="M18.4461 2.73194C18.5046 2.72974 18.5631 2.72755 18.6234 2.7253C19.0574 2.72009 19.0574 2.72009 19.2854 2.89444C19.4522 3.12723 19.461 3.24719 19.4626 3.53309C19.4631 3.58985 19.4631 3.58985 19.4635 3.64775C19.4644 3.77316 19.4648 3.89856 19.4651 4.02397C19.4654 4.11112 19.4658 4.19827 19.4661 4.28542C19.4667 4.46831 19.4671 4.65119 19.4673 4.83409C19.4676 5.06816 19.469 5.30221 19.4707 5.53628C19.4718 5.71639 19.4721 5.89649 19.4722 6.0766C19.4723 6.16287 19.4728 6.24914 19.4736 6.33541C19.4746 6.45631 19.4745 6.57717 19.4741 6.69807C19.4744 6.80118 19.4744 6.80118 19.4747 6.90636C19.4452 7.15798 19.3486 7.30908 19.1749 7.48902C18.9844 7.58957 18.8453 7.58096 18.6329 7.5586C18.409 7.45909 18.3117 7.3744 18.2227 7.14844C18.2086 7.00013 18.2086 7.00013 18.2094 6.83138C18.2094 6.76805 18.2094 6.70472 18.2095 6.63947C18.2101 6.57147 18.2107 6.50347 18.2113 6.43341C18.2115 6.36351 18.2116 6.29362 18.2118 6.2216C18.2124 5.99831 18.2139 5.77504 18.2154 5.55176C18.216 5.40039 18.2165 5.24903 18.217 5.09766C18.2183 4.72656 18.2203 4.35547 18.2227 3.98438C18.1122 3.97452 18.1122 3.97452 17.9993 3.96446C17.7858 3.94543 17.7542 3.92601 17.5782 3.77564C17.4256 3.51335 17.4183 3.40464 17.461 3.10547C17.7246 2.69246 17.9937 2.73829 18.4461 2.73194Z" fill="currentColor"/>
</g>
<defs>
<clipPath id="clip0_36_332">
<rect width="30" height="30" fill="white"/>
</clipPath>
</defs>
</svg>
