<svg width="32" height="19" viewBox="0 0 32 19" fill="none" xmlns="http://www.w3.org/2000/svg">
<path d="M23.6094 2.11111V16.8889C23.6094 17.4488 23.3917 17.9858 23.0041 18.3817C22.6166 18.7776 22.0909 19 21.5428 19H2.94288C2.39477 19 1.8691 18.7776 1.48153 18.3817C1.09396 17.9858 0.876221 17.4488 0.876221 16.8889V2.11111C0.876221 1.55121 1.09396 1.01424 1.48153 0.61833C1.8691 0.22242 2.39477 0 2.94288 0H21.5428C22.0909 0 22.6166 0.22242 23.0041 0.61833C23.3917 1.01424 23.6094 1.55121 23.6094 2.11111ZM31.1011 2.1441C30.9553 2.10766 30.8036 2.10316 30.656 2.13091C30.5084 2.15865 30.3682 2.21801 30.2447 2.30507L25.906 5.25931C25.8352 5.30754 25.7772 5.37289 25.7371 5.44954C25.697 5.52619 25.676 5.61177 25.6761 5.69868V13.3013C25.676 13.3882 25.697 13.4738 25.7371 13.5505C25.7772 13.6271 25.8352 13.6925 25.906 13.7407L30.2692 16.7121C30.4326 16.8234 30.6235 16.8848 30.8198 16.8893C31.0161 16.8937 31.2095 16.8409 31.3775 16.7372C31.5329 16.6362 31.6604 16.4963 31.7477 16.3306C31.835 16.165 31.8792 15.9792 31.8761 15.7911V3.16667C31.8762 2.93256 31.8001 2.70506 31.6598 2.51995C31.5195 2.33484 31.323 2.20262 31.1011 2.1441Z" fill="white"/>
</svg>
