<svg width="15" height="15" viewBox="0 0 15 15" fill="none" xmlns="http://www.w3.org/2000/svg">
<path d="M14.6046 0.395405C15.1318 0.922612 15.1318 1.77738 14.6046 2.30459L9.40949 7.49999L14.6046 12.6954C15.0879 13.1787 15.1281 13.9372 14.7254 14.4663L14.6046 14.6046C14.0774 15.1318 13.2226 15.1318 12.6954 14.6046L7.49999 9.40949L2.30459 14.6046C1.77738 15.1318 0.922613 15.1318 0.395405 14.6046C-0.131802 14.0774 -0.131802 13.2226 0.395405 12.6954L5.59049 7.49999L0.395405 2.30459C-0.0878678 1.82132 -0.128141 1.0628 0.274587 0.533652L0.395405 0.395405C0.922613 -0.131802 1.77738 -0.131802 2.30459 0.395405L7.49999 5.59049L12.6954 0.395405C13.2226 -0.131802 14.0774 -0.131802 14.6046 0.395405Z" fill="#FF84A5"/>
</svg>
