<svg width="17" height="22" viewBox="0 0 17 22" fill="none" xmlns="http://www.w3.org/2000/svg">
<path d="M3.60979 0.0244141C2.79474 0.0244141 2.01306 0.348194 1.43673 0.924525C0.860401 1.50086 0.536621 2.28253 0.536621 3.09758V18.0244C0.536621 18.8395 0.860401 19.6211 1.43673 20.1975C2.01306 20.7738 2.79474 21.0976 3.60979 21.0976C4.42485 21.0976 5.20652 20.7738 5.78285 20.1975C6.35918 19.6211 6.68296 18.8395 6.68296 18.0244V3.09758C6.68296 2.28253 6.35918 1.50086 5.78285 0.924525C5.20652 0.348194 4.42485 0.0244141 3.60979 0.0244141ZM4.92687 18.0244C4.92687 18.3737 4.7881 18.7087 4.5411 18.9557C4.2941 19.2027 3.9591 19.3415 3.60979 19.3415C3.26048 19.3415 2.92548 19.2027 2.67848 18.9557C2.43148 18.7087 2.29272 18.3737 2.29272 18.0244V3.09758C2.29272 2.74828 2.43148 2.41327 2.67848 2.16627C2.92548 1.91927 3.26048 1.78051 3.60979 1.78051C3.9591 1.78051 4.2941 1.91927 4.5411 2.16627C4.7881 2.41327 4.92687 2.74828 4.92687 3.09758V18.0244Z" fill="#382F31"/>
<path d="M13.2685 0.0244141C12.4534 0.0244141 11.6717 0.348194 11.0954 0.924525C10.5191 1.50086 10.1953 2.28253 10.1953 3.09758V18.0244C10.1953 18.8395 10.5191 19.6211 11.0954 20.1975C11.6717 20.7738 12.4534 21.0976 13.2685 21.0976C14.0835 21.0976 14.8652 20.7738 15.4415 20.1975C16.0179 19.6211 16.3416 18.8395 16.3416 18.0244V3.09758C16.3416 2.28253 16.0179 1.50086 15.4415 0.924525C14.8652 0.348194 14.0835 0.0244141 13.2685 0.0244141ZM14.5855 18.0244C14.5855 18.3737 14.4468 18.7087 14.1998 18.9557C13.9528 19.2027 13.6178 19.3415 13.2685 19.3415C12.9192 19.3415 12.5842 19.2027 12.3372 18.9557C12.0902 18.7087 11.9514 18.3737 11.9514 18.0244V3.09758C11.9514 2.74828 12.0902 2.41327 12.3372 2.16627C12.5842 1.91927 12.9192 1.78051 13.2685 1.78051C13.6178 1.78051 13.9528 1.91927 14.1998 2.16627C14.4468 2.41327 14.5855 2.74828 14.5855 3.09758V18.0244Z" fill="#382F31"/>
</svg>
