<svg width="21" height="21" viewBox="0 0 21 21" fill="none" xmlns="http://www.w3.org/2000/svg">
<path d="M19.2417 1.75882C18.6925 1.21046 17.9481 0.902466 17.172 0.902466C16.3959 0.902466 15.6516 1.21046 15.1024 1.75882L1.96399 14.8975C1.58775 15.2716 1.28943 15.7167 1.08629 16.2068C0.88315 16.697 0.779227 17.2226 0.78053 17.7532V19.4117C0.78053 19.6259 0.865639 19.8314 1.01713 19.9829C1.16863 20.1344 1.3741 20.2195 1.58835 20.2195H3.24681C3.77735 20.221 4.30293 20.1173 4.7931 19.9143C5.28328 19.7113 5.72831 19.413 6.10245 19.0368L19.2417 5.89738C19.7898 5.3482 20.0976 4.604 20.0976 3.8281C20.0976 3.0522 19.7898 2.308 19.2417 1.75882ZM4.96019 17.8946C4.50459 18.3472 3.88899 18.602 3.24681 18.6038H2.39617V17.7532C2.39535 17.4348 2.45769 17.1195 2.57958 16.8254C2.70146 16.5312 2.88047 16.2642 3.10625 16.0398L13.0772 6.06864L14.9352 7.92666L4.96019 17.8946ZM18.0986 4.75509L16.0742 6.78034L14.2162 4.92635L16.2414 2.90111C16.3634 2.77937 16.5082 2.68286 16.6675 2.61708C16.8268 2.5513 16.9975 2.51754 17.1698 2.51772C17.3422 2.51791 17.5128 2.55204 17.6719 2.61817C17.8311 2.6843 17.9756 2.78113 18.0974 2.90313C18.2191 3.02513 18.3156 3.16991 18.3814 3.32921C18.4472 3.48851 18.4809 3.6592 18.4807 3.83155C18.4806 4.00389 18.4464 4.17452 18.3803 4.33367C18.3142 4.49283 18.2174 4.6374 18.0954 4.75913L18.0986 4.75509Z" fill="black"/>
</svg>
