<svg width="19" height="22" viewBox="0 0 19 22" fill="none" xmlns="http://www.w3.org/2000/svg">
<path d="M17.3415 3.53661H14.6195C14.4158 2.54565 13.8766 1.65525 13.0928 1.01548C12.3091 0.375713 11.3288 0.0256912 10.3171 0.0244141H8.56101C7.54932 0.0256912 6.569 0.375713 5.78528 1.01548C5.00156 1.65525 4.46236 2.54565 4.25857 3.53661H1.53662C1.30375 3.53661 1.08041 3.62912 0.915744 3.79378C0.751078 3.95845 0.658569 4.18179 0.658569 4.41466C0.658569 4.64753 0.751078 4.87087 0.915744 5.03553C1.08041 5.2002 1.30375 5.29271 1.53662 5.29271H2.41467V16.7073C2.41606 17.8713 2.87905 18.9871 3.70208 19.8102C4.52511 20.6332 5.64097 21.0962 6.80491 21.0976H12.0732C13.2371 21.0962 14.353 20.6332 15.176 19.8102C15.9991 18.9871 16.4621 17.8713 16.4634 16.7073V5.29271H17.3415C17.5744 5.29271 17.7977 5.2002 17.9624 5.03553C18.127 4.87087 18.2195 4.64753 18.2195 4.41466C18.2195 4.18179 18.127 3.95845 17.9624 3.79378C17.7977 3.62912 17.5744 3.53661 17.3415 3.53661ZM8.56101 1.78051H10.3171C10.8617 1.78118 11.3928 1.95031 11.8375 2.26471C12.2823 2.57911 12.6188 3.02338 12.8011 3.53661H6.07701C6.25928 3.02338 6.59585 2.57911 7.04057 2.26471C7.48529 1.95031 8.01638 1.78118 8.56101 1.78051ZM14.7073 16.7073C14.7073 17.406 14.4298 18.076 13.9358 18.57C13.4418 19.064 12.7718 19.3415 12.0732 19.3415H6.80491C6.10629 19.3415 5.43629 19.064 4.94229 18.57C4.44829 18.076 4.17076 17.406 4.17076 16.7073V5.29271H14.7073V16.7073Z" fill="white"/>
<path d="M7.68303 15.8287C7.9159 15.8287 8.13924 15.7362 8.30391 15.5716C8.46857 15.4069 8.56108 15.1836 8.56108 14.9507V9.68241C8.56108 9.44954 8.46857 9.22621 8.30391 9.06154C8.13924 8.89687 7.9159 8.80437 7.68303 8.80437C7.45016 8.80437 7.22682 8.89687 7.06216 9.06154C6.89749 9.22621 6.80498 9.44954 6.80498 9.68241V14.9507C6.80498 15.1836 6.89749 15.4069 7.06216 15.5716C7.22682 15.7362 7.45016 15.8287 7.68303 15.8287Z" fill="white"/>
<path d="M11.1951 15.8287C11.428 15.8287 11.6513 15.7362 11.816 15.5716C11.9806 15.4069 12.0732 15.1836 12.0732 14.9507V9.68241C12.0732 9.44954 11.9806 9.22621 11.816 9.06154C11.6513 8.89687 11.428 8.80437 11.1951 8.80437C10.9622 8.80437 10.7389 8.89687 10.5742 9.06154C10.4096 9.22621 10.317 9.44954 10.317 9.68241V14.9507C10.317 15.1836 10.4096 15.4069 10.5742 15.5716C10.7389 15.7362 10.9622 15.8287 11.1951 15.8287Z" fill="white"/>
</svg>
