<svg width="32" height="25" viewBox="0 0 32 25" fill="none" xmlns="http://www.w3.org/2000/svg">
<path d="M21.3331 12.5C19.9625 12.5 18.6372 11.848 17.5998 10.6648C16.5912 9.51064 15.9752 7.97158 15.8665 6.33238C15.7505 4.5838 16.2512 2.97585 17.2758 1.80398C18.3005 0.632102 19.7332 0 21.3331 0C22.9218 0 24.3585 0.643465 25.3798 1.8125C26.4111 2.99289 26.9131 4.59801 26.7971 6.33167C26.6858 7.973 26.0705 9.51135 25.0638 10.6641C24.0291 11.848 22.7045 12.5 21.3331 12.5ZM30.1218 25H12.5452C12.2626 25.0016 11.9834 24.9341 11.7292 24.8027C11.4749 24.6713 11.2523 24.4796 11.0785 24.2422C10.8942 23.9848 10.7669 23.6863 10.7062 23.3691C10.6455 23.0519 10.6529 22.7242 10.7279 22.4105C11.2892 20.0092 12.6799 18.0177 14.7492 16.652C16.5858 15.4403 18.9238 14.7727 21.3331 14.7727C23.7898 14.7727 26.0665 15.4119 27.9138 16.6228C29.9878 17.9815 31.3804 19.9844 31.9391 22.4147C32.0132 22.7287 32.0198 23.0564 31.9584 23.3735C31.8969 23.6905 31.7691 23.9887 31.5844 24.2457C31.4108 24.482 31.1888 24.6729 30.9352 24.8036C30.6817 24.9343 30.4034 25.0015 30.1218 25ZM8.73321 12.7841C6.38722 12.7841 4.32457 10.4602 4.13324 7.60439C4.03857 6.14133 4.46657 4.78835 5.33323 3.79616C6.19056 2.81392 7.39989 2.27272 8.73321 2.27272C10.0665 2.27272 11.2665 2.81676 12.1285 3.80468C13.0019 4.80468 13.4285 6.15482 13.3285 7.60581C13.1372 10.4609 11.0752 12.7841 8.73321 12.7841ZM13.1105 15.0177C11.9379 14.4069 10.4159 14.1015 8.73388 14.1015C6.76989 14.1015 4.86257 14.647 3.36257 15.6371C1.66192 16.7613 0.517922 18.3984 0.0559239 20.375C-0.0116857 20.6593 -0.0180804 20.9562 0.0372182 21.2435C0.0925168 21.5308 0.208077 21.8011 0.375255 22.0341C0.533886 22.251 0.73711 22.4263 0.969297 22.5465C1.20148 22.6667 1.45645 22.7285 1.71458 22.7272H9.11454C9.23944 22.7272 9.36037 22.6805 9.45625 22.5952C9.55213 22.51 9.61688 22.3915 9.63921 22.2606C9.64654 22.2159 9.65587 22.1711 9.66654 22.1271C10.2319 19.7081 11.5565 17.664 13.5139 16.174C13.5858 16.1187 13.6437 16.0452 13.6823 15.96C13.7209 15.8749 13.7389 15.7808 13.7347 15.6864C13.7306 15.5919 13.7043 15.5001 13.6584 15.4192C13.6125 15.3383 13.5484 15.2708 13.4719 15.223C13.3672 15.1577 13.2472 15.0888 13.1105 15.0177Z" fill="white"/>
</svg>
