<svg width="27" height="26" viewBox="0 0 27 26" fill="none" xmlns="http://www.w3.org/2000/svg">
<path d="M25.7929 23.8333H6.29289C5.43093 23.8333 4.60428 23.4909 3.99479 22.8814C3.3853 22.2719 3.04289 21.4453 3.04289 20.5833V1.08333C3.04289 0.796016 2.92875 0.520465 2.72559 0.317301C2.52242 0.114137 2.24687 0 1.95955 0C1.67224 0 1.39669 0.114137 1.19352 0.317301C0.990357 0.520465 0.876221 0.796016 0.876221 1.08333V20.5833C0.877941 22.0194 1.44918 23.3961 2.46463 24.4116C3.48008 25.427 4.85683 25.9983 6.29289 26H25.7929C26.0802 26 26.3558 25.8859 26.5589 25.6827C26.7621 25.4795 26.8762 25.204 26.8762 24.9167C26.8762 24.6294 26.7621 24.3538 26.5589 24.1506C26.3558 23.9475 26.0802 23.8333 25.7929 23.8333Z" fill="white"/>
<path d="M7.37638 21.6666C7.6637 21.6666 7.93925 21.5525 8.14241 21.3493C8.34558 21.1461 8.45972 20.8706 8.45972 20.5833V12.9999C8.45972 12.7126 8.34558 12.4371 8.14241 12.2339C7.93925 12.0307 7.6637 11.9166 7.37638 11.9166C7.08907 11.9166 6.81352 12.0307 6.61035 12.2339C6.40719 12.4371 6.29305 12.7126 6.29305 12.9999V20.5833C6.29305 20.8706 6.40719 21.1461 6.61035 21.3493C6.81352 21.5525 7.08907 21.6666 7.37638 21.6666Z" fill="white"/>
<path d="M11.7094 10.8333V20.5833C11.7094 20.8706 11.8235 21.1462 12.0267 21.3494C12.2298 21.5525 12.5054 21.6667 12.7927 21.6667C13.08 21.6667 13.3556 21.5525 13.5588 21.3494C13.7619 21.1462 13.8761 20.8706 13.8761 20.5833V10.8333C13.8761 10.546 13.7619 10.2705 13.5588 10.0673C13.3556 9.86414 13.08 9.75 12.7927 9.75C12.5054 9.75 12.2298 9.86414 12.0267 10.0673C11.8235 10.2705 11.7094 10.546 11.7094 10.8333Z" fill="white"/>
<path d="M17.1262 14.0833V20.5833C17.1262 20.8706 17.2404 21.1462 17.4435 21.3494C17.6467 21.5525 17.9222 21.6667 18.2096 21.6667C18.4969 21.6667 18.7724 21.5525 18.9756 21.3494C19.1788 21.1462 19.2929 20.8706 19.2929 20.5833V14.0833C19.2929 13.796 19.1788 13.5205 18.9756 13.3173C18.7724 13.1141 18.4969 13 18.2096 13C17.9222 13 17.6467 13.1141 17.4435 13.3173C17.2404 13.5205 17.1262 13.796 17.1262 14.0833Z" fill="white"/>
<path d="M22.5431 9.74991V20.5832C22.5431 20.8706 22.6572 21.1461 22.8604 21.3493C23.0635 21.5524 23.3391 21.6666 23.6264 21.6666C23.9137 21.6666 24.1893 21.5524 24.3925 21.3493C24.5956 21.1461 24.7098 20.8706 24.7098 20.5832V9.74991C24.7098 9.46259 24.5956 9.18704 24.3925 8.98387C24.1893 8.78071 23.9137 8.66657 23.6264 8.66657C23.3391 8.66657 23.0635 8.78071 22.8604 8.98387C22.6572 9.18704 22.5431 9.46259 22.5431 9.74991Z" fill="white"/>
<path d="M7.37604 9.74993C7.66333 9.74987 7.93884 9.63569 8.14196 9.43251L12.0268 5.54768C12.2333 5.35097 12.5075 5.24125 12.7927 5.24125C13.0779 5.24125 13.3521 5.35097 13.5586 5.54768L15.9116 7.90068C16.5211 8.50996 17.3476 8.85224 18.2094 8.85224C19.0712 8.85224 19.8977 8.50996 20.5071 7.90068L26.5586 1.84918C26.756 1.64486 26.8652 1.37121 26.8627 1.08716C26.8602 0.803116 26.7463 0.531402 26.5454 0.330544C26.3446 0.129685 26.0729 0.015752 25.7888 0.0132837C25.5048 0.0108154 25.2311 0.120009 25.0268 0.317347L18.9753 6.36776C18.7721 6.57086 18.4966 6.68495 18.2094 6.68495C17.9221 6.68495 17.6466 6.57086 17.4435 6.36776L15.0905 4.01585C14.481 3.40657 13.6545 3.06429 12.7927 3.06429C11.9309 3.06429 11.1044 3.40657 10.495 4.01585L6.61012 7.90068C6.45866 8.05219 6.35552 8.2452 6.31374 8.45531C6.27196 8.66543 6.29341 8.88321 6.37539 9.08114C6.45736 9.27906 6.59618 9.44824 6.77429 9.56728C6.9524 9.68632 7.16181 9.74988 7.37604 9.74993Z" fill="white"/>
</svg>
