<svg width="21" height="15" viewBox="0 0 21 15" fill="none" xmlns="http://www.w3.org/2000/svg">
<path d="M10.4389 1.41467C4.87555 1.41467 2.17633 6.40462 1.69735 7.39243C1.67175 7.44497 1.65845 7.50261 1.65845 7.56101C1.65845 7.61941 1.67175 7.67705 1.69735 7.7296C2.17545 8.7174 4.87466 13.7074 10.4389 13.7074C16.0032 13.7074 18.7015 8.7174 19.1805 7.7296C19.2061 7.67705 19.2194 7.61941 19.2194 7.56101C19.2194 7.50261 19.2061 7.44497 19.1805 7.39243C18.7024 6.40462 16.0032 1.41467 10.4389 1.41467Z" stroke="#382F31" stroke-width="2" stroke-linecap="round" stroke-linejoin="round"/>
<path d="M10.4389 10.1952C11.9004 10.1952 13.0852 9.01581 13.0852 7.56101C13.0852 6.10622 11.9004 4.92687 10.4389 4.92687C8.97743 4.92687 7.79264 6.10622 7.79264 7.56101C7.79264 9.01581 8.97743 10.1952 10.4389 10.1952Z" stroke="#382F31" stroke-width="2" stroke-linecap="round" stroke-linejoin="round"/>
</svg>
