<svg width="27" height="26" viewBox="0 0 27 26" fill="none" xmlns="http://www.w3.org/2000/svg">
<path d="M7.37622 19.5H2.50123C2.04081 19.5 1.65514 19.344 1.34423 19.032C1.03331 18.72 0.87731 18.3343 0.876226 17.875C0.875143 17.4157 1.03114 17.03 1.34423 16.718C1.65731 16.406 2.04298 16.25 2.50123 16.25H7.37622V9.75H2.50123C2.04081 9.75 1.65514 9.594 1.34423 9.282C1.03331 8.97 0.87731 8.58434 0.876226 8.125C0.875143 7.66567 1.03114 7.28 1.34423 6.968C1.65731 6.656 2.04298 6.5 2.50123 6.5H7.37622V1.625C7.37622 1.16459 7.53222 0.778922 7.84422 0.468006C8.15622 0.157089 8.54189 0.00108894 9.00122 5.60344e-06C9.46056 -0.00107773 9.84676 0.154922 10.1598 0.468006C10.4729 0.781089 10.6284 1.16676 10.6262 1.625V6.5H17.1262V1.625C17.1262 1.16459 17.2822 0.778922 17.5942 0.468006C17.9062 0.157089 18.2919 0.00108894 18.7512 5.60344e-06C19.2106 -0.00107773 19.5968 0.154922 19.9098 0.468006C20.2229 0.781089 20.3784 1.16676 20.3762 1.625V6.5H25.2512C25.7116 6.5 26.0978 6.656 26.4098 6.968C26.7218 7.28 26.8773 7.66567 26.8762 8.125C26.8751 8.58434 26.7191 8.97054 26.4082 9.28363C26.0973 9.59671 25.7116 9.75217 25.2512 9.75H20.3762V16.25H25.2512C25.7116 16.25 26.0978 16.406 26.4098 16.718C26.7218 17.03 26.8773 17.4157 26.8762 17.875C26.8751 18.3343 26.7191 18.7205 26.4082 19.0336C26.0973 19.3467 25.7116 19.5022 25.2512 19.5H20.3762V24.375C20.3762 24.8354 20.2202 25.2216 19.9082 25.5336C19.5962 25.8456 19.2106 26.0011 18.7512 26C18.2919 25.9989 17.9062 25.8429 17.5942 25.532C17.2822 25.2211 17.1262 24.8354 17.1262 24.375V19.5H10.6262V24.375C10.6262 24.8354 10.4702 25.2216 10.1582 25.5336C9.84622 25.8456 9.46056 26.0011 9.00122 26C8.54189 25.9989 8.15622 25.8429 7.84422 25.532C7.53222 25.2211 7.37622 24.8354 7.37622 24.375V19.5ZM10.6262 16.25H17.1262V9.75H10.6262V16.25Z" fill="white"/>
</svg>
