<svg width="22" height="25" viewBox="0 0 22 25" fill="none" xmlns="http://www.w3.org/2000/svg">
<path d="M10.9385 12.0312C9.53305 12.0312 8.17406 11.4037 7.11039 10.2648C6.07612 9.154 5.44447 7.67266 5.33305 6.09492C5.2141 4.41191 5.72748 2.86426 6.77817 1.73633C7.82885 0.608399 9.29789 0 10.9385 0C12.5675 0 14.0407 0.619336 15.0879 1.74453C16.1455 2.88066 16.6602 4.42559 16.5413 6.09424C16.4271 7.67402 15.7961 9.15469 14.7639 10.2642C13.703 11.4037 12.3447 12.0312 10.9385 12.0312ZM19.9503 24.0625H1.92738C1.63762 24.0641 1.35136 23.9991 1.09063 23.8726C0.829905 23.7462 0.601666 23.5616 0.423477 23.3331C0.234466 23.0854 0.10394 22.7981 0.0416711 22.4928C-0.0205977 22.1875 -0.0129961 21.8721 0.0639075 21.5701C0.639493 19.2589 2.06547 17.3421 4.18735 16.0275C6.07065 14.8613 8.46801 14.2188 10.9385 14.2188C13.4576 14.2188 15.792 14.834 17.6863 15.9995C19.8129 17.3072 21.241 19.235 21.8138 21.5742C21.8898 21.8764 21.8965 22.1918 21.8336 22.497C21.7706 22.8021 21.6395 23.0891 21.4501 23.3365C21.2721 23.564 21.0444 23.7477 20.7845 23.8735C20.5245 23.9993 20.2392 24.064 19.9503 24.0625Z" fill="white"/>
</svg>
